<svg width="76" height="76" viewBox="0 0 76 76" fill="none" xmlns="http://www.w3.org/2000/svg">
<path d="M22.375 23.9375C22.375 23.0104 22.6499 22.1041 23.165 21.3333C23.6801 20.5624 24.4121 19.9616 25.2687 19.6068C26.1252 19.252 27.0677 19.1592 27.977 19.3401C28.8863 19.5209 29.7215 19.9674 30.3771 20.6229C31.0326 21.2785 31.4791 22.1137 31.6599 23.023C31.8408 23.9323 31.748 24.8748 31.3932 25.7313C31.0384 26.5879 30.4376 27.3199 29.6667 27.835C28.8959 28.3501 27.9896 28.625 27.0625 28.625C25.8193 28.625 24.627 28.1311 23.7479 27.2521C22.8689 26.373 22.375 25.1807 22.375 23.9375ZM75.5 6.75V69.25C75.5 70.9076 74.8415 72.4973 73.6694 73.6694C72.4973 74.8415 70.9076 75.5 69.25 75.5H6.75C5.0924 75.5 3.50268 74.8415 2.33058 73.6694C1.15848 72.4973 0.5 70.9076 0.5 69.25V6.75C0.5 5.0924 1.15848 3.50268 2.33058 2.33058C3.50268 1.15848 5.0924 0.5 6.75 0.5H69.25C70.9076 0.5 72.4973 1.15848 73.6694 2.33058C74.8415 3.50268 75.5 5.0924 75.5 6.75ZM6.75 49.2109L14.8359 41.125C16.0126 39.9656 17.5981 39.3157 19.25 39.3157C20.9019 39.3157 22.4874 39.9656 23.6641 41.125L31.75 49.2109L49.2109 31.75C50.3876 30.5906 51.9731 29.9407 53.625 29.9407C55.2769 29.9407 56.8624 30.5906 58.0391 31.75L69.25 42.9609V6.75H6.75V49.2109ZM69.25 69.25V51.7891L53.625 36.1641L36.1641 53.625C34.9874 54.7844 33.4019 55.4343 31.75 55.4343C30.0981 55.4343 28.5126 54.7844 27.3359 53.625L19.25 45.5391L6.75 58.0391V69.25H69.25Z" fill="#068BF7"/>
</svg>
