<svg width="571" height="488" viewBox="0 0 571 488" fill="none" xmlns="http://www.w3.org/2000/svg">
<g filter="url(#filter0_d_216_51)">
<path d="M274.143 334.166C236.57 334.13 200.236 320.688 171.649 296.249L169.05 293.977C141.592 269.373 123.6 235.907 118.199 199.39C112.798 162.874 120.33 125.615 139.486 94.0858C158.643 62.5566 188.213 38.7494 223.061 26.7997C257.908 14.8501 295.831 15.5132 330.242 28.6737C364.653 41.8342 393.377 66.6607 411.424 98.8404C429.472 131.02 435.703 168.52 429.035 204.825C422.366 241.131 403.221 273.948 374.923 297.576C346.625 321.204 310.963 334.15 274.133 334.166H274.143ZM197.531 264.112C212.133 276.871 229.678 285.779 248.579 290.031C267.48 294.282 287.141 293.743 305.782 288.461C324.423 283.179 341.455 273.322 355.338 259.781C369.221 246.24 379.516 229.443 385.292 210.91C391.529 190.842 392.244 169.459 387.361 149.018C382.478 128.577 372.178 109.836 357.549 94.7761C342.92 79.7159 324.506 68.8945 304.249 63.4547C283.993 58.0149 262.647 58.1587 242.466 63.8707C222.285 69.5827 204.016 80.6511 189.591 95.907C175.165 111.163 165.118 130.04 160.509 150.545C155.9 171.05 156.902 192.422 163.407 212.404C169.913 232.386 181.681 250.237 197.469 264.071L197.531 264.112Z" fill="#F79C6E"/>
<path d="M196.341 265.368C174.305 246.088 160.177 219.309 156.685 190.2C153.193 161.092 160.585 131.72 177.433 107.754C194.281 83.7877 219.39 66.928 247.913 60.43C276.436 53.932 306.35 58.2564 331.878 72.5683C357.406 86.8802 376.739 110.165 386.144 137.926C395.548 165.687 394.357 195.956 382.801 222.889C371.245 249.821 350.143 271.508 323.57 283.76C296.996 296.013 266.836 297.963 238.912 289.234C223.205 284.367 208.699 276.235 196.341 265.368ZM171.494 293.821C196.791 315.992 228.559 329.378 262.063 331.985C295.567 334.592 329.014 326.28 357.423 308.288C385.831 290.296 407.68 263.586 419.715 232.138C431.749 200.689 433.325 166.186 424.208 133.767C415.09 101.348 395.767 72.749 369.118 52.2304C342.468 31.7119 309.918 20.3718 276.317 19.8996C242.715 19.4275 209.861 29.8485 182.648 49.6103C155.435 69.372 135.319 97.4168 125.299 129.567C116.264 158.485 115.82 189.414 124.023 218.58C132.226 247.747 148.72 273.89 171.494 293.821Z" fill="url(#paint0_linear_216_51)"/>
<path d="M169.444 231.716C154.925 203.887 152.015 171.422 161.351 141.446C170.687 111.469 191.506 86.4284 219.241 71.8198C233.772 64.1214 249.76 59.5814 266.161 58.496C288.736 56.9918 311.269 62.0078 331.086 72.9492C350.904 83.8906 367.176 100.299 377.972 120.228C383.366 104.117 386.899 87.4399 388.501 70.5227C362.82 42.733 327.942 25.2386 290.355 21.2935C252.768 17.3485 215.031 27.2213 184.162 49.0757C153.294 70.93 131.396 103.278 122.541 140.103C113.687 176.929 118.478 215.724 136.024 249.273C137.902 252.857 139.893 256.316 141.998 259.65C159.082 263.269 176.565 264.627 194.001 263.687C184.047 254.52 175.74 243.705 169.444 231.716Z" fill="url(#paint1_linear_216_51)"/>
<path d="M242.049 261.985C219.12 253.091 200.493 235.68 190.044 213.372C179.595 191.065 178.127 165.58 185.946 142.216C185.408 143.471 184.911 144.748 184.362 146.045C179.748 157.792 177.496 170.338 177.736 182.961C177.977 195.584 180.705 208.035 185.765 219.597C190.824 231.159 198.114 241.605 207.216 250.332C216.318 259.06 227.052 265.898 238.8 270.452C250.549 275.006 263.079 277.187 275.672 276.869C288.264 276.551 300.669 273.741 312.174 268.599C323.679 263.458 334.055 256.088 342.707 246.912C351.359 237.736 358.116 226.936 362.588 215.134C363.096 213.816 363.624 212.487 364.017 211.159C354.126 233.741 335.925 251.627 313.205 261.095C290.485 270.563 264.997 270.881 242.049 261.985Z" fill="#F57C3D"/>
<path opacity="0.1" d="M242.049 261.985C219.12 253.091 200.493 235.68 190.044 213.372C179.595 191.065 178.127 165.58 185.946 142.216C185.408 143.471 184.911 144.748 184.362 146.045C179.748 157.792 177.496 170.338 177.736 182.961C177.977 195.584 180.705 208.035 185.765 219.597C190.824 231.159 198.114 241.605 207.216 250.332C216.318 259.06 227.052 265.898 238.8 270.452C250.549 275.006 263.079 277.187 275.672 276.869C288.264 276.551 300.669 273.741 312.174 268.599C323.679 263.458 334.055 256.088 342.707 246.912C351.359 237.736 358.116 226.936 362.588 215.134C363.096 213.816 363.624 212.487 364.017 211.159C354.126 233.741 335.925 251.627 313.205 261.095C290.485 270.563 264.997 270.881 242.049 261.985Z" fill="#FFD6C2"/>
<path opacity="0.1" d="M274.143 334.166C236.57 334.13 200.236 320.688 171.649 296.249L169.05 293.977C141.592 269.373 123.6 235.907 118.199 199.39C112.798 162.874 120.33 125.615 139.486 94.0858C158.643 62.5566 188.213 38.7494 223.061 26.7997C257.908 14.8501 295.831 15.5132 330.242 28.6737C364.653 41.8342 393.377 66.6607 411.424 98.8404C429.472 131.02 435.703 168.52 429.035 204.825C422.366 241.131 403.221 273.948 374.923 297.576C346.625 321.204 310.963 334.15 274.133 334.166H274.143ZM197.531 264.112C212.133 276.871 229.678 285.779 248.579 290.031C267.48 294.282 287.141 293.743 305.782 288.461C324.423 283.179 341.455 273.322 355.338 259.781C369.221 246.24 379.516 229.443 385.292 210.91C391.529 190.843 392.244 169.459 387.361 149.018C382.478 128.577 372.178 109.836 357.549 94.7761C342.92 79.7159 324.506 68.8945 304.249 63.4547C283.993 58.0149 262.647 58.1587 242.466 63.8707C222.285 69.5827 204.016 80.6511 189.591 95.907C175.165 111.163 165.118 130.04 160.509 150.545C155.9 171.05 156.902 192.422 163.407 212.404C169.913 232.386 181.681 250.237 197.469 264.071L197.531 264.112Z" fill="#FFD6C2"/>
<path d="M293.782 168.459C289.092 182.986 279.164 210.807 286.856 226.299C296.174 241.657 331.529 225.936 345.774 202.754C360.062 181.741 353.881 156.816 338.03 150.3C352.048 101.529 340.619 46.2619 300.48 2.94916C297.261 -0.661961 290.014 -1.48173 286.856 3.48875C283.698 8.45924 285.438 15.6503 288.357 18.3483C325.131 52.8823 340.287 101.248 330.504 148.172C313.349 146.958 299.166 154.969 293.782 168.459Z" fill="url(#paint2_linear_216_51)"/>
<path d="M245.103 203.408C245.127 203.35 245.148 203.292 245.165 203.232V203.149C249.306 183.505 270.944 157.491 270.913 156.204C269.37 154.243 245.807 179.427 238.446 199.289L234.305 196.933C240.32 175.142 265.426 147.737 265.364 146.574C263.832 144.499 236.81 171.033 227.565 193.083L223.486 190.738C231.354 166.695 259.918 138.014 259.877 136.955C258.355 134.786 227.866 162.607 216.746 186.868L212.605 184.502C222.368 158.269 254.4 128.249 254.348 127.284C252.826 125.022 218.869 154.16 205.866 180.631C205.793 180.735 205.741 180.849 205.669 180.953C199.374 195.262 202.449 210.257 212.916 215.746C200.068 261.985 210.97 314.564 249.286 356.321C252.392 359.838 259.442 359.869 262.6 354.038C265.757 348.206 264.298 340.631 261.564 338.182C227.472 306.74 212.709 262.11 221.012 218.122C232.752 218.672 240.879 212.436 245.103 203.408Z" fill="url(#paint3_linear_216_51)"/>
<path opacity="0.1" d="M293.782 168.459C289.092 182.986 279.164 210.807 286.856 226.299C296.174 241.657 331.529 225.936 345.774 202.754C360.062 181.741 353.881 156.816 338.03 150.3C352.048 101.529 340.619 46.2619 300.48 2.94916C297.261 -0.661961 290.014 -1.48173 286.856 3.48875C283.698 8.45924 285.438 15.6503 288.357 18.3483C325.131 52.8823 340.287 101.248 330.504 148.172C313.349 146.958 299.166 154.969 293.782 168.459Z" fill="#FFD6C2"/>
<path opacity="0.1" d="M245.103 203.408C245.127 203.35 245.148 203.292 245.165 203.232V203.149C249.306 183.505 270.944 157.491 270.913 156.204C269.37 154.243 245.807 179.427 238.446 199.289L234.305 196.933C240.32 175.142 265.426 147.737 265.364 146.574C263.832 144.499 236.81 171.033 227.565 193.083L223.486 190.738C231.354 166.695 259.918 138.014 259.877 136.955C258.355 134.786 227.866 162.607 216.746 186.868L212.605 184.502C222.368 158.269 254.4 128.249 254.348 127.284C252.826 125.022 218.869 154.16 205.866 180.631C205.793 180.735 205.741 180.849 205.669 180.953C199.374 195.262 202.449 210.257 212.916 215.746C200.068 261.985 210.97 314.564 249.286 356.321C252.392 359.838 259.442 359.869 262.6 354.038C265.757 348.206 264.298 340.631 261.564 338.182C227.472 306.74 212.709 262.11 221.012 218.122C232.752 218.672 240.879 212.436 245.103 203.408Z" fill="#FFD6C2"/>
<path d="M20.9694 393.391H47.6542C51.7994 393.391 55.5992 393.826 59.0535 394.696C62.5942 395.478 65.6599 396.783 68.2507 398.609C70.8414 400.348 72.8709 402.652 74.339 405.522C75.807 408.391 76.5411 411.87 76.5411 415.957C76.5411 421.87 75.5048 426.913 73.4322 431.087C71.3596 435.261 68.5529 438.696 65.0122 441.391C61.4715 444 57.3263 445.913 52.5766 447.13C47.9133 448.348 42.9045 448.957 37.5503 448.957H27.5759L21.8762 478.435H4L20.9694 393.391ZM39.4933 434.739C45.7975 434.739 50.6336 433.391 54.0015 430.696C57.3695 428 59.0535 423.957 59.0535 418.565C59.0535 414.739 57.8013 411.957 55.2969 410.217C52.8789 408.478 49.3814 407.609 44.8044 407.609H35.7367L30.5552 434.739H39.4933Z" fill="#333333"/>
<path d="M95.9727 387H113.719L99.0817 460.174C98.9089 460.87 98.8226 461.391 98.8226 461.739C98.8226 462 98.8226 462.304 98.8226 462.652C98.8226 463.783 99.0385 464.565 99.4703 465C99.9884 465.435 100.593 465.652 101.284 465.652C101.716 465.652 102.061 465.652 102.32 465.652C102.579 465.652 103.011 465.565 103.615 465.391L103.097 478.565C101.975 479 100.636 479.348 99.0817 479.609C97.5272 479.87 95.7137 480 93.6411 480C88.9777 480 85.6529 478.87 83.6667 476.609C81.6804 474.348 80.6873 471.261 80.6873 467.348C80.6873 465.087 80.9896 462.435 81.5941 459.391L95.9727 387Z" fill="#333333"/>
<path d="M115.584 456.261C115.584 450.087 116.533 444.348 118.433 439.043C120.333 433.652 122.881 428.957 126.076 424.957C129.271 420.957 132.942 417.826 137.087 415.565C141.232 413.304 145.507 412.174 149.911 412.174C152.847 412.174 155.611 412.957 158.201 414.522C160.792 416 162.692 418.043 163.901 420.652H164.16L167.01 413.739H181.13L168.305 478.435H153.927L154.186 469.957H153.797C150.861 473 147.623 475.435 144.082 477.261C140.541 479.087 137.087 480 133.719 480C128.019 480 123.572 477.957 120.376 473.87C117.181 469.783 115.584 463.913 115.584 456.261ZM141.491 465.391C143.65 465.391 145.939 464.739 148.357 463.435C150.861 462.043 153.149 459.522 155.222 455.87L159.756 432.913C158.72 430.739 157.381 429.174 155.74 428.217C154.186 427.261 152.674 426.783 151.206 426.783C148.961 426.783 146.802 427.478 144.73 428.87C142.657 430.261 140.8 432.174 139.159 434.609C137.605 437.043 136.353 439.913 135.403 443.217C134.453 446.522 133.978 450.13 133.978 454.043C133.978 457.957 134.626 460.826 135.921 462.652C137.303 464.478 139.159 465.391 141.491 465.391Z" fill="#333333"/>
<path d="M197.679 427.696H189.13L191.72 414.522L201.177 413.739L206.617 396.783H221.514L218.276 413.739H232.913L230.193 427.696H215.167L209.596 455.478C209.424 456.261 209.337 457 209.337 457.696C209.337 458.391 209.337 459.087 209.337 459.783C209.337 463.957 211.54 466.043 215.944 466.043C216.894 466.043 217.801 465.913 218.664 465.652C219.528 465.391 220.391 465.043 221.255 464.609L224.364 477.13C222.637 477.826 220.521 478.478 218.016 479.087C215.512 479.696 212.619 480 209.337 480C202.861 480 198.197 478.391 195.347 475.174C192.498 471.957 191.073 467.87 191.073 462.913C191.073 461.522 191.159 460.174 191.332 458.87C191.591 457.478 191.85 456.087 192.109 454.696L197.679 427.696Z" fill="#333333"/>
<path d="M232.718 452.348C232.718 446.348 233.754 440.913 235.827 436.043C237.986 431.087 240.749 426.87 244.117 423.391C247.572 419.826 251.415 417.087 255.646 415.174C259.878 413.174 264.152 412.174 268.47 412.174C272.27 412.174 275.509 412.826 278.186 414.13C280.863 415.348 283.022 417.087 284.663 419.348C286.39 421.522 287.599 424.087 288.29 427.043C289.067 429.913 289.455 433.043 289.455 436.435C289.455 438 289.326 439.565 289.067 441.13C288.808 442.609 288.506 444.043 288.16 445.435C287.815 446.739 287.426 447.913 286.994 448.957C286.649 449.913 286.347 450.652 286.087 451.174H249.558C249.299 456.565 250.551 460.478 253.314 462.913C256.164 465.348 259.705 466.565 263.937 466.565C265.923 466.565 267.995 466.087 270.154 465.13C272.313 464.174 274.213 463.13 275.854 462L282.072 473.217C279.481 475.043 276.243 476.652 272.356 478.043C268.47 479.348 264.023 480 259.014 480C255.128 480 251.544 479.391 248.262 478.174C245.067 476.87 242.304 475.043 239.972 472.696C237.727 470.261 235.956 467.348 234.661 463.957C233.366 460.565 232.718 456.696 232.718 452.348ZM274.3 440.217C274.731 438.739 274.947 437.13 274.947 435.391C274.947 432.783 274.3 430.565 273.004 428.739C271.795 426.826 269.55 425.87 266.268 425.87C263.246 425.87 260.309 427.087 257.46 429.522C254.61 431.87 252.451 435.435 250.983 440.217H274.3Z" fill="#333333"/>
<path d="M313.821 393.391H332.604L338.692 432.652L340.894 447.913H341.412L349.184 432.652L370.429 393.391H389.341L372.372 478.435H355.791L362.786 444.652C363.218 442.565 363.736 440.304 364.34 437.87C364.945 435.348 365.593 432.826 366.283 430.304C366.974 427.783 367.665 425.348 368.356 423C369.047 420.565 369.738 418.304 370.429 416.217H370.04L359.547 435.783L339.728 470.609H332.604L326.386 435.783L323.795 416.217H323.277C323.104 418.304 322.888 420.565 322.629 423C322.457 425.435 322.241 427.913 321.982 430.435C321.722 432.957 321.42 435.435 321.075 437.87C320.729 440.304 320.341 442.565 319.909 444.652L313.173 478.435H296.851L313.821 393.391Z" fill="#333333"/>
<path d="M393.128 456.261C393.128 450.087 394.078 444.348 395.978 439.043C397.878 433.652 400.425 428.957 403.621 424.957C406.816 420.957 410.486 417.826 414.631 415.565C418.777 413.304 423.051 412.174 427.456 412.174C430.392 412.174 433.155 412.957 435.746 414.522C438.337 416 440.237 418.043 441.446 420.652H441.705L444.555 413.739H458.674L445.85 478.435H431.471L431.73 469.957H431.342C428.406 473 425.167 475.435 421.626 477.261C418.086 479.087 414.631 480 411.263 480C405.564 480 401.116 477.957 397.921 473.87C394.726 469.783 393.128 463.913 393.128 456.261ZM419.036 465.391C421.195 465.391 423.483 464.739 425.901 463.435C428.406 462.043 430.694 459.522 432.767 455.87L437.3 432.913C436.264 430.739 434.926 429.174 433.285 428.217C431.73 427.261 430.219 426.783 428.751 426.783C426.506 426.783 424.347 427.478 422.274 428.87C420.201 430.261 418.345 432.174 416.704 434.609C415.149 437.043 413.897 439.913 412.947 443.217C411.997 446.522 411.522 450.13 411.522 454.043C411.522 457.957 412.17 460.826 413.465 462.652C414.847 464.478 416.704 465.391 419.036 465.391Z" fill="#333333"/>
<path d="M475.224 427.696H466.674L469.265 414.522L478.721 413.739L484.162 396.783H499.059L495.82 413.739H510.458L507.738 427.696H492.711L487.141 455.478C486.968 456.261 486.882 457 486.882 457.696C486.882 458.391 486.882 459.087 486.882 459.783C486.882 463.957 489.084 466.043 493.488 466.043C494.438 466.043 495.345 465.913 496.209 465.652C497.072 465.391 497.936 465.043 498.799 464.609L501.908 477.13C500.181 477.826 498.065 478.478 495.561 479.087C493.057 479.696 490.164 480 486.882 480C480.405 480 475.742 478.391 472.892 475.174C470.042 471.957 468.617 467.87 468.617 462.913C468.617 461.522 468.704 460.174 468.876 458.87C469.135 457.478 469.394 456.087 469.654 454.696L475.224 427.696Z" fill="#333333"/>
<path d="M510.263 452.348C510.263 446.348 511.299 440.913 513.371 436.043C515.53 431.087 518.294 426.87 521.662 423.391C525.116 419.826 528.959 417.087 533.191 415.174C537.422 413.174 541.697 412.174 546.015 412.174C549.815 412.174 553.053 412.826 555.73 414.13C558.407 415.348 560.566 417.087 562.207 419.348C563.934 421.522 565.143 424.087 565.834 427.043C566.611 429.913 567 433.043 567 436.435C567 438 566.87 439.565 566.611 441.13C566.352 442.609 566.05 444.043 565.705 445.435C565.359 446.739 564.971 447.913 564.539 448.957C564.193 449.913 563.891 450.652 563.632 451.174H527.102C526.843 456.565 528.096 460.478 530.859 462.913C533.709 465.348 537.25 466.565 541.481 466.565C543.467 466.565 545.54 466.087 547.699 465.13C549.858 464.174 551.758 463.13 553.399 462L559.616 473.217C557.026 475.043 553.787 476.652 549.901 478.043C546.015 479.348 541.567 480 536.559 480C532.673 480 529.089 479.391 525.807 478.174C522.612 476.87 519.848 475.043 517.517 472.696C515.271 470.261 513.501 467.348 512.206 463.957C510.91 460.565 510.263 456.696 510.263 452.348ZM551.844 440.217C552.276 438.739 552.492 437.13 552.492 435.391C552.492 432.783 551.844 430.565 550.549 428.739C549.34 426.826 547.094 425.87 543.813 425.87C540.79 425.87 537.854 427.087 535.004 429.522C532.154 431.87 529.995 435.435 528.527 440.217H551.844Z" fill="#333333"/>
</g>
<defs>
<filter id="filter0_d_216_51" x="0" y="0" width="571" height="488" filterUnits="userSpaceOnUse" color-interpolation-filters="sRGB">
<feFlood flood-opacity="0" result="BackgroundImageFix"/>
<feColorMatrix in="SourceAlpha" type="matrix" values="0 0 0 0 0 0 0 0 0 0 0 0 0 0 0 0 0 0 127 0" result="hardAlpha"/>
<feOffset dy="4"/>
<feGaussianBlur stdDeviation="2"/>
<feComposite in2="hardAlpha" operator="out"/>
<feColorMatrix type="matrix" values="0 0 0 0 0 0 0 0 0 0 0 0 0 0 0 0 0 0 0.25 0"/>
<feBlend mode="normal" in2="BackgroundImageFix" result="effect1_dropShadow_216_51"/>
<feBlend mode="normal" in="SourceGraphic" in2="effect1_dropShadow_216_51" result="shape"/>
</filter>
<linearGradient id="paint0_linear_216_51" x1="277.161" y1="146.605" x2="289.964" y2="23.0985" gradientUnits="userSpaceOnUse">
<stop stop-color="#F57C3D"/>
<stop offset="1" stop-color="#F79C6E"/>
</linearGradient>
<linearGradient id="paint1_linear_216_51" x1="281.867" y1="180.288" x2="162.082" y2="-46.379" gradientUnits="userSpaceOnUse">
<stop offset="0.01" stop-color="#FFBB99"/>
<stop offset="0.267811" stop-color="#F57C3D"/>
<stop offset="1" stop-color="#D96226"/>
</linearGradient>
<linearGradient id="paint2_linear_216_51" x1="284.03" y1="116.191" x2="353.798" y2="116.191" gradientUnits="userSpaceOnUse">
<stop stop-color="#9D533F"/>
<stop offset="0.18" stop-color="#934936"/>
<stop offset="0.49" stop-color="#7A2F1D"/>
<stop offset="0.54" stop-color="#752A19"/>
<stop offset="1" stop-color="#642C24"/>
</linearGradient>
<linearGradient id="paint3_linear_216_51" x1="202.604" y1="242.975" x2="270.954" y2="242.975" gradientUnits="userSpaceOnUse">
<stop stop-color="#9D533F"/>
<stop offset="0.18" stop-color="#934936"/>
<stop offset="0.49" stop-color="#7A2F1D"/>
<stop offset="0.54" stop-color="#752A19"/>
<stop offset="1" stop-color="#642C24"/>
</linearGradient>
</defs>
</svg>
