<svg width="996" height="367" viewBox="0 0 996 367" fill="none" xmlns="http://www.w3.org/2000/svg">
<g filter="url(#filter0_d_216_51)">
<path d="M162.143 334.166C124.57 334.13 88.236 320.688 59.6489 296.249L57.0503 293.977C29.5919 269.373 11.5996 235.907 6.19877 199.39C0.797968 162.874 8.32997 125.615 27.4864 94.0858C46.6428 62.5566 76.2132 38.7494 111.061 26.7997C145.908 14.8501 183.831 15.5132 218.242 28.6737C252.653 41.8342 281.377 66.6607 299.424 98.8404C317.472 131.02 323.703 168.52 317.035 204.825C310.366 241.131 291.221 273.948 262.923 297.576C234.625 321.204 198.963 334.15 162.133 334.166H162.143ZM85.5313 264.112C100.133 276.871 117.678 285.78 136.579 290.031C155.48 294.282 175.141 293.743 193.782 288.461C212.423 283.179 229.455 273.322 243.338 259.781C257.221 246.24 267.516 229.443 273.292 210.91C279.529 190.842 280.244 169.459 275.361 149.018C270.478 128.577 260.178 109.836 245.549 94.7761C230.92 79.7159 212.506 68.8945 192.249 63.4547C171.993 58.0149 150.647 58.1587 130.466 63.8707C110.285 69.5827 92.0165 80.6511 77.591 95.907C63.1655 111.163 53.1178 130.04 48.5091 150.545C43.9004 171.05 44.9016 192.422 51.4071 212.404C57.9126 232.386 69.6808 250.237 85.4691 264.071L85.5313 264.112Z" fill="#F79C6E"/>
<path d="M84.3407 265.368C62.3048 246.088 48.1771 219.309 44.6852 190.201C41.1933 161.092 48.5849 131.72 65.4329 107.754C82.2809 83.7877 107.39 66.928 135.913 60.43C164.436 53.932 194.35 58.2564 219.878 72.5683C245.406 86.8802 264.739 110.165 274.144 137.926C283.548 165.687 282.357 195.956 270.801 222.889C259.245 249.821 238.143 271.508 211.57 283.76C184.996 296.013 154.836 297.963 126.912 289.234C111.205 284.367 96.6992 276.235 84.3407 265.368ZM59.4937 293.821C84.7915 315.992 116.559 329.378 150.063 331.985C183.567 334.592 217.014 326.28 245.423 308.288C273.831 290.296 295.68 263.586 307.715 232.138C319.749 200.689 321.325 166.186 312.208 133.767C303.09 101.348 283.767 72.749 257.118 52.2304C230.468 31.7119 197.918 20.3718 164.317 19.8996C130.715 19.4275 97.8606 29.8485 70.6476 49.6103C43.4346 69.372 23.3195 97.4168 13.2989 129.567C4.26363 158.485 3.82034 189.414 12.0231 218.58C20.2259 247.747 36.7201 273.89 59.4937 293.821Z" fill="url(#paint0_linear_216_51)"/>
<path d="M57.4436 231.716C42.9253 203.887 40.0148 171.422 49.3507 141.446C58.6867 111.469 79.5064 86.4284 107.241 71.8198C121.772 64.1214 137.76 59.5814 154.161 58.496C176.736 56.9918 199.269 62.0078 219.086 72.9492C238.904 83.8906 255.176 100.299 265.972 120.228C271.366 104.117 274.899 87.4399 276.501 70.5227C250.82 42.733 215.942 25.2386 178.355 21.2935C140.768 17.3485 103.031 27.2213 72.1623 49.0757C41.294 70.93 19.396 103.278 10.5413 140.103C1.68664 176.929 6.47804 215.724 24.0243 249.273C25.9017 252.857 27.8929 256.316 29.998 259.65C47.0815 263.269 64.565 264.627 82.0008 263.687C72.0468 254.52 63.74 243.705 57.4436 231.716Z" fill="url(#paint1_linear_216_51)"/>
<path d="M130.049 261.985C107.12 253.091 88.4933 235.679 78.0441 213.372C67.595 191.065 66.1274 165.58 73.9465 142.216C73.4081 143.471 72.9112 144.748 72.3625 146.045C67.7475 157.792 65.4955 170.338 65.7362 182.961C65.9768 195.584 68.7053 208.035 73.7647 219.597C78.824 231.159 86.1144 241.605 95.2164 250.332C104.318 259.06 115.052 265.898 126.8 270.452C138.549 275.006 151.079 277.187 163.672 276.869C176.264 276.551 188.669 273.741 200.174 268.599C211.678 263.458 222.055 256.088 230.707 246.912C239.359 237.736 246.116 226.936 250.588 215.134C251.096 213.816 251.624 212.487 252.017 211.159C242.126 233.741 223.925 251.627 201.205 261.095C178.485 270.563 152.997 270.881 130.049 261.985Z" fill="#F57C3D"/>
<path opacity="0.1" d="M130.049 261.985C107.12 253.091 88.4933 235.679 78.0441 213.372C67.595 191.065 66.1274 165.58 73.9465 142.216C73.4081 143.471 72.9112 144.748 72.3625 146.045C67.7475 157.792 65.4955 170.338 65.7362 182.961C65.9768 195.584 68.7053 208.035 73.7647 219.597C78.824 231.159 86.1144 241.605 95.2164 250.332C104.318 259.06 115.052 265.898 126.8 270.452C138.549 275.006 151.079 277.187 163.672 276.869C176.264 276.551 188.669 273.741 200.174 268.599C211.678 263.458 222.055 256.088 230.707 246.912C239.359 237.736 246.116 226.936 250.588 215.134C251.096 213.816 251.624 212.487 252.017 211.159C242.126 233.741 223.925 251.627 201.205 261.095C178.485 270.563 152.997 270.881 130.049 261.985Z" fill="#FFD6C2"/>
<path opacity="0.1" d="M162.143 334.166C124.57 334.13 88.236 320.688 59.6489 296.249L57.0503 293.977C29.5919 269.373 11.5996 235.907 6.19877 199.39C0.797968 162.874 8.32997 125.615 27.4864 94.0858C46.6428 62.5566 76.2132 38.7494 111.061 26.7997C145.908 14.8501 183.831 15.5132 218.242 28.6737C252.653 41.8342 281.377 66.6607 299.424 98.8404C317.472 131.02 323.703 168.52 317.035 204.825C310.366 241.131 291.221 273.948 262.923 297.576C234.625 321.204 198.963 334.15 162.133 334.166H162.143ZM85.5313 264.112C100.133 276.871 117.678 285.779 136.579 290.031C155.48 294.282 175.141 293.743 193.782 288.461C212.423 283.179 229.455 273.322 243.338 259.781C257.221 246.24 267.516 229.443 273.292 210.91C279.529 190.842 280.244 169.459 275.361 149.018C270.478 128.577 260.178 109.836 245.549 94.7761C230.92 79.7159 212.506 68.8945 192.249 63.4547C171.993 58.0149 150.647 58.1587 130.466 63.8707C110.285 69.5827 92.0165 80.6511 77.591 95.907C63.1655 111.163 53.1178 130.04 48.5091 150.545C43.9004 171.05 44.9016 192.422 51.4071 212.404C57.9126 232.386 69.6808 250.237 85.4691 264.071L85.5313 264.112Z" fill="#FFD6C2"/>
<path d="M181.782 168.459C177.092 182.986 167.164 210.807 174.856 226.299C184.174 241.657 219.529 225.936 233.774 202.754C248.062 181.741 241.881 156.816 226.03 150.3C240.048 101.529 228.619 46.2619 188.48 2.94916C185.261 -0.661961 178.014 -1.48173 174.856 3.48875C171.698 8.45924 173.438 15.6503 176.357 18.3483C213.131 52.8823 228.287 101.248 218.504 148.172C201.349 146.958 187.166 154.969 181.782 168.459Z" fill="url(#paint2_linear_216_51)"/>
<path d="M133.103 203.408C133.127 203.35 133.148 203.292 133.165 203.232V203.149C137.306 183.505 158.944 157.491 158.913 156.204C157.37 154.243 133.807 179.427 126.446 199.289L122.305 196.933C128.32 175.142 153.426 147.737 153.364 146.574C151.832 144.499 124.81 171.033 115.565 193.083L111.486 190.738C119.354 166.695 147.918 138.014 147.877 136.955C146.355 134.786 115.866 162.607 104.746 186.868L100.605 184.502C110.368 158.269 142.4 128.249 142.348 127.284C140.826 125.022 106.869 154.16 93.8656 180.631C93.7931 180.735 93.7413 180.849 93.6688 180.953C87.3743 195.262 90.4491 210.257 100.916 215.746C88.0679 261.985 98.9696 314.564 137.286 356.321C140.392 359.838 147.442 359.869 150.6 354.038C153.757 348.206 152.298 340.631 149.564 338.182C115.472 306.74 100.709 262.11 109.012 218.122C120.752 218.672 128.879 212.436 133.103 203.408Z" fill="url(#paint3_linear_216_51)"/>
<path opacity="0.1" d="M181.782 168.459C177.092 182.986 167.164 210.807 174.856 226.299C184.174 241.657 219.529 225.936 233.774 202.754C248.062 181.741 241.881 156.816 226.03 150.3C240.048 101.529 228.619 46.2619 188.48 2.94916C185.261 -0.661961 178.014 -1.48173 174.856 3.48875C171.698 8.45924 173.438 15.6503 176.357 18.3483C213.131 52.8823 228.287 101.248 218.504 148.172C201.349 146.958 187.166 154.969 181.782 168.459Z" fill="#FFD6C2"/>
<path opacity="0.1" d="M133.103 203.408C133.127 203.35 133.148 203.292 133.165 203.232V203.149C137.306 183.505 158.944 157.491 158.913 156.204C157.37 154.243 133.807 179.427 126.446 199.289L122.305 196.933C128.32 175.142 153.426 147.737 153.364 146.574C151.832 144.499 124.81 171.033 115.565 193.083L111.486 190.738C119.354 166.695 147.918 138.014 147.877 136.955C146.355 134.786 115.866 162.607 104.746 186.868L100.605 184.502C110.368 158.269 142.4 128.249 142.348 127.284C140.826 125.022 106.869 154.16 93.8656 180.631C93.7931 180.735 93.7413 180.849 93.6688 180.953C87.3743 195.262 90.4491 210.257 100.916 215.746C88.0679 261.985 98.9695 314.564 137.286 356.321C140.392 359.838 147.442 359.869 150.6 354.038C153.757 348.206 152.298 340.631 149.564 338.182C115.472 306.74 100.709 262.11 109.012 218.122C120.752 218.672 128.879 212.436 133.103 203.408Z" fill="#FFD6C2"/>
<path d="M445.969 123.391H472.654C476.799 123.391 480.599 123.826 484.054 124.696C487.594 125.478 490.66 126.783 493.251 128.609C495.841 130.348 497.871 132.652 499.339 135.522C500.807 138.391 501.541 141.87 501.541 145.957C501.541 151.87 500.505 156.913 498.432 161.087C496.36 165.261 493.553 168.696 490.012 171.391C486.472 174 482.326 175.913 477.577 177.13C472.913 178.348 467.904 178.957 462.55 178.957H452.576L446.876 208.435H429L445.969 123.391ZM464.493 164.739C470.797 164.739 475.634 163.391 479.002 160.696C482.37 158 484.054 153.957 484.054 148.565C484.054 144.739 482.801 141.957 480.297 140.217C477.879 138.478 474.381 137.609 469.804 137.609H460.737L455.555 164.739H464.493Z" fill="#333333"/>
<path d="M520.973 117H538.719L524.082 190.174C523.909 190.87 523.823 191.391 523.823 191.739C523.823 192 523.823 192.304 523.823 192.652C523.823 193.783 524.038 194.565 524.47 195C524.988 195.435 525.593 195.652 526.284 195.652C526.716 195.652 527.061 195.652 527.32 195.652C527.579 195.652 528.011 195.565 528.615 195.391L528.097 208.565C526.975 209 525.636 209.348 524.082 209.609C522.527 209.87 520.714 210 518.641 210C513.978 210 510.653 208.87 508.667 206.609C506.68 204.348 505.687 201.261 505.687 197.348C505.687 195.087 505.99 192.435 506.594 189.391L520.973 117Z" fill="#333333"/>
<path d="M540.584 186.261C540.584 180.087 541.533 174.348 543.433 169.043C545.333 163.652 547.881 158.957 551.076 154.957C554.271 150.957 557.942 147.826 562.087 145.565C566.232 143.304 570.507 142.174 574.911 142.174C577.847 142.174 580.611 142.957 583.201 144.522C585.792 146 587.692 148.043 588.901 150.652H589.16L592.01 143.739H606.13L593.305 208.435H578.927L579.186 199.957H578.797C575.861 203 572.623 205.435 569.082 207.261C565.541 209.087 562.087 210 558.719 210C553.019 210 548.572 207.957 545.376 203.87C542.181 199.783 540.584 193.913 540.584 186.261ZM566.491 195.391C568.65 195.391 570.939 194.739 573.357 193.435C575.861 192.043 578.149 189.522 580.222 185.87L584.756 162.913C583.72 160.739 582.381 159.174 580.74 158.217C579.186 157.261 577.674 156.783 576.206 156.783C573.961 156.783 571.802 157.478 569.73 158.87C567.657 160.261 565.8 162.174 564.159 164.609C562.605 167.043 561.353 169.913 560.403 173.217C559.453 176.522 558.978 180.13 558.978 184.043C558.978 187.957 559.626 190.826 560.921 192.652C562.303 194.478 564.159 195.391 566.491 195.391Z" fill="#333333"/>
<path d="M622.679 157.696H614.13L616.72 144.522L626.177 143.739L631.617 126.783H646.514L643.276 143.739H657.913L655.193 157.696H640.167L634.596 185.478C634.424 186.261 634.337 187 634.337 187.696C634.337 188.391 634.337 189.087 634.337 189.783C634.337 193.957 636.54 196.043 640.944 196.043C641.894 196.043 642.801 195.913 643.664 195.652C644.528 195.391 645.391 195.043 646.255 194.609L649.364 207.13C647.637 207.826 645.521 208.478 643.016 209.087C640.512 209.696 637.619 210 634.337 210C627.861 210 623.197 208.391 620.347 205.174C617.498 201.957 616.073 197.87 616.073 192.913C616.073 191.522 616.159 190.174 616.332 188.87C616.591 187.478 616.85 186.087 617.109 184.696L622.679 157.696Z" fill="#333333"/>
<path d="M657.718 182.348C657.718 176.348 658.754 170.913 660.827 166.043C662.986 161.087 665.749 156.87 669.117 153.391C672.572 149.826 676.415 147.087 680.646 145.174C684.878 143.174 689.152 142.174 693.47 142.174C697.27 142.174 700.509 142.826 703.186 144.13C705.863 145.348 708.022 147.087 709.663 149.348C711.39 151.522 712.599 154.087 713.29 157.043C714.067 159.913 714.455 163.043 714.455 166.435C714.455 168 714.326 169.565 714.067 171.13C713.808 172.609 713.505 174.043 713.16 175.435C712.815 176.739 712.426 177.913 711.994 178.957C711.649 179.913 711.347 180.652 711.087 181.174H674.558C674.299 186.565 675.551 190.478 678.314 192.913C681.164 195.348 684.705 196.565 688.937 196.565C690.923 196.565 692.995 196.087 695.154 195.13C697.313 194.174 699.213 193.13 700.854 192L707.072 203.217C704.481 205.043 701.243 206.652 697.356 208.043C693.47 209.348 689.023 210 684.014 210C680.128 210 676.544 209.391 673.262 208.174C670.067 206.87 667.304 205.043 664.972 202.696C662.727 200.261 660.956 197.348 659.661 193.957C658.366 190.565 657.718 186.696 657.718 182.348ZM699.3 170.217C699.731 168.739 699.947 167.13 699.947 165.391C699.947 162.783 699.3 160.565 698.004 158.739C696.795 156.826 694.55 155.87 691.268 155.87C688.246 155.87 685.309 157.087 682.46 159.522C679.61 161.87 677.451 165.435 675.983 170.217H699.3Z" fill="#333333"/>
<path d="M738.821 123.391H757.604L763.692 162.652L765.894 177.913H766.412L774.184 162.652L795.429 123.391H814.341L797.372 208.435H780.791L787.786 174.652C788.218 172.565 788.736 170.304 789.34 167.87C789.945 165.348 790.593 162.826 791.283 160.304C791.974 157.783 792.665 155.348 793.356 153C794.047 150.565 794.738 148.304 795.429 146.217H795.04L784.547 165.783L764.728 200.609H757.604L751.386 165.783L748.795 146.217H748.277C748.104 148.304 747.888 150.565 747.629 153C747.457 155.435 747.241 157.913 746.982 160.435C746.722 162.957 746.42 165.435 746.075 167.87C745.729 170.304 745.341 172.565 744.909 174.652L738.173 208.435H721.851L738.821 123.391Z" fill="#333333"/>
<path d="M818.128 186.261C818.128 180.087 819.078 174.348 820.978 169.043C822.878 163.652 825.425 158.957 828.621 154.957C831.816 150.957 835.486 147.826 839.631 145.565C843.777 143.304 848.051 142.174 852.456 142.174C855.392 142.174 858.155 142.957 860.746 144.522C863.337 146 865.237 148.043 866.446 150.652H866.705L869.555 143.739H883.674L870.85 208.435H856.471L856.73 199.957H856.342C853.406 203 850.167 205.435 846.626 207.261C843.086 209.087 839.631 210 836.263 210C830.564 210 826.116 207.957 822.921 203.87C819.726 199.783 818.128 193.913 818.128 186.261ZM844.036 195.391C846.195 195.391 848.483 194.739 850.901 193.435C853.406 192.043 855.694 189.522 857.767 185.87L862.3 162.913C861.264 160.739 859.926 159.174 858.285 158.217C856.73 157.261 855.219 156.783 853.751 156.783C851.506 156.783 849.347 157.478 847.274 158.87C845.202 160.261 843.345 162.174 841.704 164.609C840.15 167.043 838.897 169.913 837.947 173.217C836.997 176.522 836.522 180.13 836.522 184.043C836.522 187.957 837.17 190.826 838.465 192.652C839.847 194.478 841.704 195.391 844.036 195.391Z" fill="#333333"/>
<path d="M900.224 157.696H891.674L894.265 144.522L903.721 143.739L909.162 126.783H924.059L920.82 143.739H935.458L932.738 157.696H917.711L912.141 185.478C911.968 186.261 911.882 187 911.882 187.696C911.882 188.391 911.882 189.087 911.882 189.783C911.882 193.957 914.084 196.043 918.488 196.043C919.438 196.043 920.345 195.913 921.209 195.652C922.072 195.391 922.936 195.043 923.799 194.609L926.908 207.13C925.181 207.826 923.065 208.478 920.561 209.087C918.057 209.696 915.164 210 911.882 210C905.405 210 900.742 208.391 897.892 205.174C895.042 201.957 893.617 197.87 893.617 192.913C893.617 191.522 893.704 190.174 893.876 188.87C894.135 187.478 894.394 186.087 894.654 184.696L900.224 157.696Z" fill="#333333"/>
<path d="M935.263 182.348C935.263 176.348 936.299 170.913 938.371 166.043C940.53 161.087 943.294 156.87 946.662 153.391C950.116 149.826 953.959 147.087 958.191 145.174C962.422 143.174 966.697 142.174 971.015 142.174C974.815 142.174 978.053 142.826 980.73 144.13C983.407 145.348 985.566 147.087 987.207 149.348C988.934 151.522 990.143 154.087 990.834 157.043C991.611 159.913 992 163.043 992 166.435C992 168 991.87 169.565 991.611 171.13C991.352 172.609 991.05 174.043 990.705 175.435C990.359 176.739 989.971 177.913 989.539 178.957C989.193 179.913 988.891 180.652 988.632 181.174H952.102C951.843 186.565 953.096 190.478 955.859 192.913C958.709 195.348 962.25 196.565 966.481 196.565C968.467 196.565 970.54 196.087 972.699 195.13C974.858 194.174 976.758 193.13 978.399 192L984.616 203.217C982.026 205.043 978.787 206.652 974.901 208.043C971.015 209.348 966.567 210 961.559 210C957.673 210 954.089 209.391 950.807 208.174C947.612 206.87 944.848 205.043 942.517 202.696C940.271 200.261 938.501 197.348 937.206 193.957C935.91 190.565 935.263 186.696 935.263 182.348ZM976.844 170.217C977.276 168.739 977.492 167.13 977.492 165.391C977.492 162.783 976.844 160.565 975.549 158.739C974.34 156.826 972.094 155.87 968.813 155.87C965.79 155.87 962.854 157.087 960.004 159.522C957.154 161.87 954.995 165.435 953.527 170.217H976.844Z" fill="#333333"/>
</g>
<defs>
<filter id="filter0_d_216_51" x="0.495117" y="0" width="995.505" height="366.736" filterUnits="userSpaceOnUse" color-interpolation-filters="sRGB">
<feFlood flood-opacity="0" result="BackgroundImageFix"/>
<feColorMatrix in="SourceAlpha" type="matrix" values="0 0 0 0 0 0 0 0 0 0 0 0 0 0 0 0 0 0 127 0" result="hardAlpha"/>
<feOffset dy="4"/>
<feGaussianBlur stdDeviation="2"/>
<feComposite in2="hardAlpha" operator="out"/>
<feColorMatrix type="matrix" values="0 0 0 0 0 0 0 0 0 0 0 0 0 0 0 0 0 0 0.25 0"/>
<feBlend mode="normal" in2="BackgroundImageFix" result="effect1_dropShadow_216_51"/>
<feBlend mode="normal" in="SourceGraphic" in2="effect1_dropShadow_216_51" result="shape"/>
</filter>
<linearGradient id="paint0_linear_216_51" x1="165.161" y1="146.605" x2="177.964" y2="23.0985" gradientUnits="userSpaceOnUse">
<stop stop-color="#F57C3D"/>
<stop offset="1" stop-color="#F79C6E"/>
</linearGradient>
<linearGradient id="paint1_linear_216_51" x1="169.867" y1="180.288" x2="50.0824" y2="-46.379" gradientUnits="userSpaceOnUse">
<stop offset="0.01" stop-color="#FFBB99"/>
<stop offset="0.267811" stop-color="#F57C3D"/>
<stop offset="1" stop-color="#D96226"/>
</linearGradient>
<linearGradient id="paint2_linear_216_51" x1="172.03" y1="116.191" x2="241.798" y2="116.191" gradientUnits="userSpaceOnUse">
<stop stop-color="#9D533F"/>
<stop offset="0.18" stop-color="#934936"/>
<stop offset="0.49" stop-color="#7A2F1D"/>
<stop offset="0.54" stop-color="#752A19"/>
<stop offset="1" stop-color="#642C24"/>
</linearGradient>
<linearGradient id="paint3_linear_216_51" x1="90.6044" y1="242.975" x2="158.954" y2="242.975" gradientUnits="userSpaceOnUse">
<stop stop-color="#9D533F"/>
<stop offset="0.18" stop-color="#934936"/>
<stop offset="0.49" stop-color="#7A2F1D"/>
<stop offset="0.54" stop-color="#752A19"/>
<stop offset="1" stop-color="#642C24"/>
</linearGradient>
</defs>
</svg>
