<svg width="1695" height="403" viewBox="0 0 1695 403" fill="none" xmlns="http://www.w3.org/2000/svg">
<g clip-path="url(#clip0_604_348)">
<path d="M581.304 202.337C580.314 204.065 579.092 205.726 577.64 207.32C576.188 208.849 574.571 210.177 572.789 211.307C571.072 212.436 569.224 213.333 567.244 213.998C565.264 214.662 563.25 214.994 561.204 214.994C558.63 214.994 555.957 214.031 553.184 212.104C550.412 210.177 547.705 207.885 545.065 205.228C542.425 202.503 539.917 199.746 537.54 196.956C535.164 194.099 533.052 191.74 531.203 189.88L529.619 190.777C529.289 191.973 528.992 193.468 528.728 195.261C528.464 197.055 528.233 198.916 528.035 200.842C527.837 202.769 527.672 204.663 527.54 206.523C527.474 208.317 527.408 209.845 527.342 211.108L509.124 217.486V76.8641L527.342 70.4858V181.11C528.068 178.651 528.959 175.828 530.015 172.638C531.071 169.383 532.293 166.061 533.679 162.672C535.131 159.217 536.781 155.829 538.629 152.507C540.478 149.185 542.524 146.228 544.768 143.637C547.012 140.979 549.488 138.853 552.194 137.259C554.9 135.664 557.838 134.867 561.006 134.867C562.92 134.867 564.637 135.232 566.155 135.963C567.739 136.628 569.059 137.558 570.115 138.754C571.237 139.95 572.096 141.345 572.69 142.939C573.284 144.534 573.581 146.261 573.581 148.122C573.581 151.909 572.657 155.53 570.808 158.985C568.96 162.44 566.617 165.662 563.778 168.652C561.006 171.642 557.97 174.333 554.669 176.724C551.435 179.116 548.399 181.143 545.56 182.804C546.484 183.601 547.54 184.697 548.729 186.093C549.917 187.421 551.138 188.85 552.392 190.378C553.712 191.906 555.065 193.468 556.452 195.062C557.904 196.657 559.323 198.085 560.709 199.348C562.095 200.61 563.481 201.64 564.868 202.437C566.32 203.234 567.673 203.633 568.927 203.633C570.841 203.633 572.591 203.201 574.175 202.337C575.759 201.474 577.112 200.344 578.234 198.949L581.304 202.337ZM554.768 155.397C554.768 154.268 554.273 153.204 553.283 152.208C552.293 151.211 551.27 150.713 550.214 150.713C548.894 150.713 547.54 151.377 546.154 152.706C544.834 154.035 543.547 155.729 542.293 157.789C541.039 159.849 539.817 162.141 538.629 164.665C537.507 167.19 536.484 169.649 535.56 172.04C534.636 174.432 533.811 176.658 533.085 178.718C532.425 180.711 531.93 182.206 531.599 183.202C532.524 182.538 533.712 181.541 535.164 180.213C536.682 178.884 538.299 177.389 540.016 175.728C541.732 174 543.448 172.207 545.164 170.346C546.946 168.419 548.531 166.559 549.917 164.765C551.369 162.905 552.524 161.177 553.382 159.583C554.306 157.922 554.768 156.527 554.768 155.397Z" fill="#508CD2"/>
<path d="M668.415 201.739C666.897 204.995 665.114 207.487 663.068 209.214C661.022 210.941 659.075 212.204 657.226 213.001C655.048 213.931 652.837 214.463 650.593 214.596C647.622 214.596 645.18 214.131 643.266 213.2C641.417 212.27 639.932 211.041 638.81 209.513C637.688 207.985 636.896 206.257 636.434 204.331C636.038 202.404 635.84 200.444 635.84 198.451V166.659C635.312 169.051 634.619 171.908 633.76 175.23C632.968 178.552 631.978 182.04 630.79 185.694C629.602 189.282 628.216 192.87 626.632 196.457C625.047 199.979 623.199 203.135 621.087 205.925C619.041 208.716 616.697 211.008 614.057 212.802C611.483 214.529 608.578 215.393 605.344 215.393C602.638 215.393 600.492 214.861 598.908 213.798C597.39 212.802 596.235 211.373 595.443 209.513C594.717 207.586 594.254 205.327 594.056 202.736C593.924 200.078 593.858 197.155 593.858 193.966V150.713C593.858 149.118 593.495 147.856 592.769 146.926C592.043 145.996 591.086 145.531 589.898 145.531C588.776 145.464 587.522 145.863 586.135 146.727C584.749 147.59 583.396 148.986 582.076 150.912L579.403 147.922C580.921 144.733 582.67 142.275 584.65 140.548C586.631 138.754 588.578 137.458 590.492 136.661C592.67 135.731 594.915 135.199 597.225 135.066C600.195 135.066 602.605 135.531 604.453 136.461C606.367 137.392 607.852 138.621 608.908 140.149C610.03 141.611 610.79 143.305 611.186 145.232C611.648 147.158 611.879 149.118 611.879 151.112V192.371C611.879 194.962 612.341 196.657 613.265 197.454C614.189 198.251 615.377 198.152 616.829 197.155C618.348 196.092 619.998 194.198 621.78 191.474C623.628 188.684 625.476 185.03 627.325 180.512C628.513 176.193 629.668 171.741 630.79 167.157C631.714 163.237 632.638 158.918 633.562 154.201C634.553 149.484 635.312 144.933 635.84 140.548L654.058 134.169V198.949C654.058 200.543 654.421 201.806 655.147 202.736C655.873 203.666 656.797 204.164 657.919 204.231C659.042 204.231 660.263 203.799 661.583 202.935C662.969 202.072 664.322 200.676 665.642 198.75L668.415 201.739Z" fill="#508CD2"/>
<path d="M711.465 201.739C709.947 204.995 708.198 207.487 706.218 209.214C704.237 210.941 702.29 212.204 700.376 213.001C698.198 213.931 695.953 214.463 693.643 214.596C690.673 214.596 688.23 214.131 686.316 213.2C684.468 212.27 682.983 211.041 681.861 209.513C680.805 207.985 680.045 206.257 679.583 204.331C679.187 202.404 678.989 200.444 678.989 198.451V146.228H668.494L672.752 136.262H678.989V100.982L697.109 94.6038V136.262H715.921L711.861 146.228H697.109V198.949C697.109 200.543 697.472 201.806 698.198 202.736C698.924 203.666 699.848 204.164 700.97 204.231C702.092 204.231 703.346 203.799 704.732 202.935C706.119 202.072 707.472 200.676 708.792 198.75L711.465 201.739Z" fill="#508CD2"/>
<path d="M803.032 201.739C801.514 204.995 799.732 207.487 797.685 209.214C795.639 210.941 793.692 212.204 791.844 213.001C789.665 213.931 787.454 214.463 785.21 214.596C782.239 214.596 779.797 214.131 777.883 213.2C776.035 212.27 774.549 211.041 773.427 209.513C772.305 207.985 771.513 206.257 771.051 204.331C770.655 202.404 770.457 200.444 770.457 198.451V166.659C769.929 169.051 769.236 171.908 768.378 175.23C767.586 178.552 766.595 182.04 765.407 185.694C764.219 189.282 762.833 192.87 761.249 196.457C759.665 199.979 757.816 203.135 755.704 205.925C753.658 208.716 751.315 211.008 748.674 212.802C746.1 214.529 743.196 215.393 739.961 215.393C737.255 215.393 735.11 214.861 733.525 213.798C732.007 212.802 730.852 211.373 730.06 209.513C729.334 207.586 728.872 205.327 728.674 202.736C728.542 200.078 728.476 197.155 728.476 193.966V150.713C728.476 149.118 728.113 147.856 727.387 146.926C726.66 145.996 725.703 145.531 724.515 145.531C723.393 145.464 722.139 145.863 720.753 146.727C719.367 147.59 718.013 148.986 716.693 150.912L714.02 147.922C715.538 144.733 717.287 142.275 719.268 140.548C721.248 138.754 723.195 137.458 725.109 136.661C727.288 135.731 729.532 135.199 731.842 135.066C734.812 135.066 737.222 135.531 739.07 136.461C740.984 137.392 742.469 138.621 743.526 140.149C744.648 141.611 745.407 143.305 745.803 145.232C746.265 147.158 746.496 149.118 746.496 151.112V192.371C746.496 194.962 746.958 196.657 747.882 197.454C748.806 198.251 749.994 198.152 751.447 197.155C752.965 196.092 754.615 194.198 756.397 191.474C758.245 188.684 760.094 185.03 761.942 180.512C763.13 176.193 764.285 171.741 765.407 167.157C766.331 163.237 767.255 158.918 768.18 154.201C769.17 149.484 769.929 144.933 770.457 140.548L788.675 134.169V198.949C788.675 200.543 789.038 201.806 789.764 202.736C790.49 203.666 791.415 204.164 792.537 204.231C793.659 204.231 794.88 203.799 796.2 202.935C797.586 202.072 798.939 200.676 800.26 198.75L803.032 201.739Z" fill="#508CD2"/>
<path d="M919.055 201.739C917.537 204.995 915.754 207.487 913.708 209.214C911.662 210.941 909.715 212.204 907.866 213.001C905.688 213.931 903.477 214.463 901.232 214.596C898.262 214.596 895.82 214.131 893.906 213.2C892.057 212.27 890.572 211.041 889.45 209.513C888.328 207.985 887.536 206.257 887.074 204.331C886.678 202.404 886.48 200.444 886.48 198.451V156.693C886.48 155.63 886.282 154.699 885.886 153.902C885.49 153.038 884.961 152.54 884.301 152.407C883.641 152.274 882.849 152.607 881.925 153.404C881.001 154.201 880.011 155.63 878.955 157.689C877.172 163.004 875.555 168.585 874.103 174.432C872.849 179.482 871.694 185.196 870.638 191.574C869.648 197.886 869.086 204.397 868.954 211.108L850.736 217.486V156.693C850.736 155.63 850.538 154.699 850.142 153.902C849.746 153.038 849.185 152.54 848.459 152.407C847.799 152.274 847.007 152.607 846.083 153.404C845.158 154.201 844.201 155.63 843.211 157.689C841.231 163.27 839.515 169.084 838.063 175.13C837.402 177.721 836.775 180.478 836.181 183.402C835.587 186.325 835.059 189.348 834.597 192.471C834.201 195.527 833.871 198.65 833.607 201.839C833.343 204.962 833.244 208.051 833.31 211.108L815.29 217.486V150.514C815.29 148.919 814.927 147.657 814.201 146.727C813.475 145.796 812.517 145.331 811.329 145.331C810.207 145.265 808.953 145.663 807.567 146.527C806.181 147.391 804.827 148.786 803.507 150.713L800.834 147.723C802.352 144.534 804.101 142.076 806.082 140.348C808.128 138.554 810.108 137.259 812.022 136.461C814.201 135.531 816.445 135 818.755 134.867C821.66 134.867 824.036 135.332 825.884 136.262C827.798 137.192 829.283 138.421 830.34 139.95C831.462 141.411 832.221 143.105 832.617 145.032C833.079 146.959 833.31 148.919 833.31 150.912V171.941C834.498 165.961 836.28 160.679 838.657 156.095C841.033 151.51 843.508 147.657 846.083 144.534C848.723 141.345 851.297 138.953 853.806 137.358C856.314 135.697 858.327 134.867 859.845 134.867C861.76 134.867 863.311 135.199 864.499 135.863C865.687 136.461 866.611 137.392 867.271 138.654C867.931 139.916 868.36 141.478 868.558 143.338C868.822 145.132 868.954 147.258 868.954 149.716V171.941C870.209 165.961 871.991 160.679 874.301 156.095C876.677 151.51 879.186 147.657 881.826 144.534C884.466 141.345 887.041 138.953 889.549 137.358C892.057 135.697 894.071 134.867 895.589 134.867C899.351 134.867 901.794 136.129 902.916 138.654C904.104 141.112 904.698 144.8 904.698 149.716V198.949C904.698 200.543 905.061 201.806 905.787 202.736C906.513 203.666 907.437 204.164 908.559 204.231C909.682 204.231 910.903 203.799 912.223 202.935C913.609 202.072 914.962 200.676 916.282 198.75L919.055 201.739Z" fill="#508CD2"/>
<path d="M993.888 173.834C993.888 178.552 992.733 183.369 990.423 188.285C988.179 193.135 985.208 197.587 981.512 201.64C977.815 205.693 973.591 209.015 968.838 211.606C964.152 214.131 959.366 215.393 954.481 215.393C949.927 215.393 945.9 214.629 942.402 213.101C938.903 211.506 935.966 209.347 933.59 206.623C931.213 203.832 929.398 200.577 928.144 196.856C926.956 193.069 926.362 188.983 926.362 184.598V76.8641L944.58 70.4858V187.887C944.58 190.146 944.877 192.371 945.471 194.564C946.065 196.756 946.956 198.75 948.145 200.543C949.333 202.271 950.818 203.699 952.6 204.829C954.448 205.892 956.627 206.423 959.135 206.423C962.171 206.423 964.812 205.693 967.056 204.231C969.366 202.703 971.28 200.776 972.799 198.451C974.383 196.059 975.538 193.468 976.264 190.677C977.056 187.887 977.452 185.196 977.452 182.604C977.452 178.751 976.726 174.864 975.274 170.944C973.888 166.958 971.941 163.37 969.432 160.181C966.924 156.992 963.987 154.334 960.62 152.208C957.254 150.082 953.656 148.853 949.828 148.52L966.264 136.262C969.828 137.458 973.261 139.352 976.561 141.943C979.928 144.468 982.898 147.424 985.472 150.813C988.047 154.201 990.093 157.889 991.611 161.875C993.129 165.861 993.888 169.848 993.888 173.834Z" fill="#508CD2"/>
<path d="M1082.68 201.54C1081.89 203.268 1080.9 204.895 1079.71 206.423C1078.52 207.952 1077.14 209.314 1075.55 210.51C1074.04 211.705 1072.35 212.669 1070.5 213.4C1068.72 214.064 1066.84 214.396 1064.86 214.396C1059.65 214.396 1055.88 212.968 1053.57 210.111C1051.33 207.188 1050.21 203.234 1050.21 198.251V196.457C1049.02 198.716 1047.67 200.975 1046.15 203.234C1044.69 205.493 1043.01 207.52 1041.1 209.314C1039.25 211.108 1037.17 212.569 1034.86 213.699C1032.55 214.828 1029.97 215.393 1027.14 215.393C1022.85 215.393 1019.05 214.562 1015.75 212.901C1012.45 211.24 1009.68 209.015 1007.43 206.224C1005.19 203.367 1003.51 200.045 1002.38 196.258C1001.26 192.471 1000.7 188.451 1000.7 184.199C1000.7 178.419 1001.69 172.672 1003.67 166.958C1005.72 161.177 1008.56 156.028 1012.19 151.51C1015.88 146.992 1020.27 143.338 1025.35 140.548C1030.5 137.691 1036.21 136.262 1042.48 136.262C1044.99 136.262 1047.5 136.495 1050.01 136.96C1052.52 137.425 1054.89 138.189 1057.14 139.252C1059.45 140.249 1061.53 141.577 1063.38 143.238C1065.29 144.899 1066.84 146.926 1068.03 149.318L1053.28 155.596C1052.48 154.334 1051.56 153.138 1050.5 152.009C1049.51 150.813 1048.39 149.783 1047.14 148.919C1045.95 148.055 1044.66 147.358 1043.28 146.826C1041.89 146.295 1040.44 146.029 1038.92 146.029C1035.49 146.029 1032.42 147.092 1029.71 149.218C1027.07 151.344 1024.79 153.969 1022.88 157.091C1021.03 160.214 1019.61 163.536 1018.62 167.057C1017.63 170.579 1017.14 173.768 1017.14 176.625C1017.14 179.15 1017.37 182.007 1017.83 185.196C1018.36 188.318 1019.25 191.275 1020.5 194.065C1021.76 196.856 1023.41 199.215 1025.45 201.141C1027.5 203.068 1030.07 204.032 1033.18 204.032C1035.62 204.032 1037.73 203.5 1039.51 202.437C1041.3 201.308 1042.81 199.879 1044.07 198.152C1045.32 196.358 1046.35 194.331 1047.14 192.072C1048 189.747 1048.62 187.388 1049.02 184.996C1049.48 182.604 1049.78 180.246 1049.91 177.92C1050.11 175.529 1050.21 173.402 1050.21 171.542V164.665L1068.23 158.287V198.75C1068.23 200.078 1068.56 201.308 1069.22 202.437C1069.88 203.5 1070.9 204.032 1072.29 204.032C1073.94 204.032 1075.42 203.434 1076.74 202.238C1078.13 200.975 1079.22 199.713 1080.01 198.451L1082.68 201.54Z" fill="#508CD2"/>
<path d="M1161.87 202.337C1160.88 204.065 1159.66 205.726 1158.21 207.32C1156.76 208.849 1155.14 210.177 1153.36 211.307C1151.64 212.436 1149.79 213.333 1147.81 213.998C1145.83 214.662 1143.82 214.994 1141.77 214.994C1139.2 214.994 1136.53 214.031 1133.75 212.104C1130.98 210.177 1128.27 207.885 1125.63 205.228C1122.99 202.503 1120.49 199.746 1118.11 196.956C1115.73 194.099 1113.62 191.74 1111.77 189.88L1110.19 190.777C1109.86 191.973 1109.56 193.468 1109.3 195.261C1109.03 197.055 1108.8 198.916 1108.6 200.842C1108.41 202.769 1108.24 204.663 1108.11 206.523C1108.04 208.317 1107.98 209.845 1107.91 211.108L1089.69 217.486V76.8641L1107.91 70.4858V181.11C1108.64 178.651 1109.53 175.828 1110.58 172.638C1111.64 169.383 1112.86 166.061 1114.25 162.672C1115.7 159.217 1117.35 155.829 1119.2 152.507C1121.05 149.185 1123.09 146.228 1125.34 143.637C1127.58 140.979 1130.06 138.853 1132.76 137.259C1135.47 135.664 1138.41 134.867 1141.58 134.867C1143.49 134.867 1145.21 135.232 1146.72 135.963C1148.31 136.628 1149.63 137.558 1150.68 138.754C1151.81 139.95 1152.66 141.345 1153.26 142.939C1153.85 144.534 1154.15 146.261 1154.15 148.122C1154.15 151.909 1153.23 155.53 1151.38 158.985C1149.53 162.44 1147.19 165.662 1144.35 168.652C1141.58 171.642 1138.54 174.333 1135.24 176.724C1132 179.116 1128.97 181.143 1126.13 182.804C1127.05 183.601 1128.11 184.697 1129.3 186.093C1130.49 187.421 1131.71 188.85 1132.96 190.378C1134.28 191.906 1135.63 193.468 1137.02 195.062C1138.47 196.657 1139.89 198.085 1141.28 199.348C1142.66 200.61 1144.05 201.64 1145.44 202.437C1146.89 203.234 1148.24 203.633 1149.5 203.633C1151.41 203.633 1153.16 203.201 1154.74 202.337C1156.33 201.474 1157.68 200.344 1158.8 198.949L1161.87 202.337ZM1135.34 155.397C1135.34 154.268 1134.84 153.204 1133.85 152.208C1132.86 151.211 1131.84 150.713 1130.78 150.713C1129.46 150.713 1128.11 151.377 1126.72 152.706C1125.4 154.035 1124.12 155.729 1122.86 157.789C1121.61 159.849 1120.39 162.141 1119.2 164.665C1118.08 167.19 1117.05 169.649 1116.13 172.04C1115.2 174.432 1114.38 176.658 1113.65 178.718C1112.99 180.711 1112.5 182.206 1112.17 183.202C1113.09 182.538 1114.28 181.541 1115.73 180.213C1117.25 178.884 1118.87 177.389 1120.58 175.728C1122.3 174 1124.02 172.207 1125.73 170.346C1127.52 168.419 1129.1 166.559 1130.49 164.765C1131.94 162.905 1133.09 161.177 1133.95 159.583C1134.88 157.922 1135.34 156.527 1135.34 155.397Z" fill="#508CD2"/>
<path d="M1246.21 201.54C1245.42 203.268 1244.43 204.895 1243.24 206.423C1242.05 207.952 1240.67 209.314 1239.08 210.51C1237.56 211.705 1235.88 212.669 1234.03 213.4C1232.25 214.064 1230.37 214.396 1228.39 214.396C1223.17 214.396 1219.41 212.968 1217.1 210.111C1214.86 207.188 1213.74 203.234 1213.74 198.251V196.457C1212.55 198.716 1211.19 200.975 1209.68 203.234C1208.22 205.493 1206.54 207.52 1204.63 209.314C1202.78 211.108 1200.7 212.569 1198.39 213.699C1196.08 214.828 1193.5 215.393 1190.67 215.393C1186.38 215.393 1182.58 214.562 1179.28 212.901C1175.98 211.24 1173.21 209.015 1170.96 206.224C1168.72 203.367 1167.03 200.045 1165.91 196.258C1164.79 192.471 1164.23 188.451 1164.23 184.199C1164.23 178.419 1165.22 172.672 1167.2 166.958C1169.25 161.177 1172.08 156.028 1175.71 151.51C1179.41 146.992 1183.8 143.338 1188.88 140.548C1194.03 137.691 1199.74 136.262 1206.01 136.262C1208.52 136.262 1211.03 136.495 1213.54 136.96C1216.05 137.425 1218.42 138.189 1220.67 139.252C1222.98 140.249 1225.06 141.577 1226.9 143.238C1228.82 144.899 1230.37 146.926 1231.56 149.318L1216.8 155.596C1216.01 154.334 1215.09 153.138 1214.03 152.009C1213.04 150.813 1211.92 149.783 1210.67 148.919C1209.48 148.055 1208.19 147.358 1206.8 146.826C1205.42 146.295 1203.97 146.029 1202.45 146.029C1199.02 146.029 1195.95 147.092 1193.24 149.218C1190.6 151.344 1188.32 153.969 1186.41 157.091C1184.56 160.214 1183.14 163.536 1182.15 167.057C1181.16 170.579 1180.67 173.768 1180.67 176.625C1180.67 179.15 1180.9 182.007 1181.36 185.196C1181.89 188.318 1182.78 191.275 1184.03 194.065C1185.29 196.856 1186.94 199.215 1188.98 201.141C1191.03 203.068 1193.6 204.032 1196.71 204.032C1199.15 204.032 1201.26 203.5 1203.04 202.437C1204.82 201.308 1206.34 199.879 1207.6 198.152C1208.85 196.358 1209.87 194.331 1210.67 192.072C1211.52 189.747 1212.15 187.388 1212.55 184.996C1213.01 182.604 1213.31 180.246 1213.44 177.92C1213.64 175.529 1213.74 173.402 1213.74 171.542V164.665L1231.76 158.287V198.75C1231.76 200.078 1232.09 201.308 1232.75 202.437C1233.41 203.5 1234.43 204.032 1235.82 204.032C1237.47 204.032 1238.95 203.434 1240.27 202.238C1241.66 200.975 1242.75 199.713 1243.54 198.451L1246.21 201.54Z" fill="#508CD2"/>
<path d="M1361.24 201.739C1359.73 204.995 1357.94 207.487 1355.9 209.214C1353.85 210.941 1351.9 212.204 1350.06 213.001C1347.88 213.931 1345.67 214.463 1343.42 214.596C1340.45 214.596 1338.01 214.131 1336.09 213.2C1334.25 212.27 1332.76 211.041 1331.64 209.513C1330.52 207.985 1329.73 206.257 1329.26 204.331C1328.87 202.404 1328.67 200.444 1328.67 198.451V156.693C1328.67 155.63 1328.47 154.699 1328.07 153.902C1327.68 153.038 1327.15 152.54 1326.49 152.407C1325.83 152.274 1325.04 152.607 1324.11 153.404C1323.19 154.201 1322.2 155.63 1321.14 157.689C1319.36 163.004 1317.74 168.585 1316.29 174.432C1315.04 179.482 1313.88 185.196 1312.83 191.574C1311.84 197.886 1311.28 204.397 1311.14 211.108L1292.93 217.486V156.693C1292.93 155.63 1292.73 154.699 1292.33 153.902C1291.94 153.038 1291.37 152.54 1290.65 152.407C1289.99 152.274 1289.2 152.607 1288.27 153.404C1287.35 154.201 1286.39 155.63 1285.4 157.689C1283.42 163.27 1281.7 169.084 1280.25 175.13C1279.59 177.721 1278.96 180.478 1278.37 183.402C1277.78 186.325 1277.25 189.348 1276.79 192.471C1276.39 195.527 1276.06 198.65 1275.8 201.839C1275.53 204.962 1275.43 208.051 1275.5 211.108L1257.48 217.486V150.514C1257.48 148.919 1257.12 147.657 1256.39 146.727C1255.66 145.796 1254.71 145.331 1253.52 145.331C1252.4 145.265 1251.14 145.663 1249.76 146.527C1248.37 147.391 1247.02 148.786 1245.7 150.713L1243.02 147.723C1244.54 144.534 1246.29 142.076 1248.27 140.348C1250.32 138.554 1252.3 137.259 1254.21 136.461C1256.39 135.531 1258.63 135 1260.94 134.867C1263.85 134.867 1266.23 135.332 1268.07 136.262C1269.99 137.192 1271.47 138.421 1272.53 139.95C1273.65 141.411 1274.41 143.105 1274.81 145.032C1275.27 146.959 1275.5 148.919 1275.5 150.912V171.941C1276.69 165.961 1278.47 160.679 1280.85 156.095C1283.22 151.51 1285.7 147.657 1288.27 144.534C1290.91 141.345 1293.49 138.953 1295.99 137.358C1298.5 135.697 1300.52 134.867 1302.03 134.867C1303.95 134.867 1305.5 135.199 1306.69 135.863C1307.88 136.461 1308.8 137.392 1309.46 138.654C1310.12 139.916 1310.55 141.478 1310.75 143.338C1311.01 145.132 1311.14 147.258 1311.14 149.716V171.941C1312.4 165.961 1314.18 160.679 1316.49 156.095C1318.87 151.51 1321.38 147.657 1324.02 144.534C1326.66 141.345 1329.23 138.953 1331.74 137.358C1334.25 135.697 1336.26 134.867 1337.78 134.867C1341.54 134.867 1343.98 136.129 1345.1 138.654C1346.29 141.112 1346.89 144.8 1346.89 149.716V198.949C1346.89 200.543 1347.25 201.806 1347.98 202.736C1348.7 203.666 1349.63 204.164 1350.75 204.231C1351.87 204.231 1353.09 203.799 1354.41 202.935C1355.8 202.072 1357.15 200.676 1358.47 198.75L1361.24 201.739Z" fill="#508CD2"/>
<path d="M1390.83 205.825C1390.83 207.42 1390.5 208.915 1389.84 210.31C1389.24 211.706 1388.42 212.901 1387.36 213.898C1386.37 214.961 1385.15 215.792 1383.7 216.39C1382.31 216.988 1380.83 217.287 1379.24 217.287C1377.66 217.287 1376.18 216.988 1374.79 216.39C1373.47 215.792 1372.28 214.961 1371.22 213.898C1370.17 212.901 1369.34 211.706 1368.75 210.31C1368.16 208.915 1367.86 207.42 1367.86 205.825C1367.86 204.231 1368.16 202.736 1368.75 201.341C1369.34 199.945 1370.17 198.716 1371.22 197.653C1372.28 196.59 1373.47 195.76 1374.79 195.162C1376.18 194.497 1377.66 194.165 1379.24 194.165C1380.83 194.165 1382.31 194.497 1383.7 195.162C1385.15 195.76 1386.37 196.59 1387.36 197.653C1388.42 198.716 1389.24 199.945 1389.84 201.341C1390.5 202.736 1390.83 204.231 1390.83 205.825Z" fill="#508CD2"/>
<path d="M1473.09 191.773C1470.78 194.763 1468.24 197.687 1465.46 200.543C1462.76 203.334 1459.79 205.826 1456.55 208.018C1453.38 210.211 1450.02 212.004 1446.45 213.4C1442.89 214.729 1439.19 215.393 1435.36 215.393C1430.48 215.393 1425.99 214.529 1421.9 212.802C1417.81 211.074 1414.28 208.616 1411.3 205.427C1408.33 202.238 1406.02 198.384 1404.37 193.866C1402.72 189.348 1401.9 184.299 1401.9 178.718C1401.9 172.871 1403.05 167.323 1405.36 162.074C1407.74 156.825 1410.88 152.241 1414.77 148.321C1418.73 144.335 1423.32 141.212 1428.53 138.953C1433.75 136.628 1439.23 135.465 1444.97 135.465C1447.21 135.465 1449.46 135.697 1451.7 136.162C1454.01 136.561 1456.19 137.225 1458.24 138.156C1460.35 139.019 1462.26 140.215 1463.98 141.743C1465.76 143.205 1467.25 144.966 1468.43 147.025L1454.28 154.799C1453.62 153.204 1452.66 151.809 1451.4 150.613C1450.22 149.417 1448.86 148.421 1447.35 147.623C1445.83 146.826 1444.21 146.228 1442.49 145.83C1440.84 145.431 1439.23 145.232 1437.64 145.232C1434.47 145.232 1431.64 145.962 1429.13 147.424C1426.62 148.819 1424.47 150.68 1422.69 153.005C1420.97 155.264 1419.65 157.855 1418.73 160.779C1417.81 163.636 1417.34 166.559 1417.34 169.549C1417.34 175.263 1418.04 180.312 1419.42 184.697C1420.81 189.082 1422.72 192.77 1425.17 195.76C1427.61 198.75 1430.48 201.009 1433.78 202.537C1437.08 204.065 1440.68 204.829 1444.57 204.829C1446.82 204.829 1449.13 204.264 1451.5 203.135C1453.88 202.005 1456.16 200.61 1458.34 198.949C1460.58 197.221 1462.69 195.394 1464.67 193.468C1466.72 191.541 1468.53 189.813 1470.12 188.285L1473.09 191.773Z" fill="#508CD2"/>
<path d="M1558.81 201.54C1558.02 203.268 1557.03 204.895 1555.84 206.423C1554.65 207.952 1553.27 209.314 1551.68 210.51C1550.17 211.705 1548.48 212.669 1546.63 213.4C1544.85 214.064 1542.97 214.396 1540.99 214.396C1535.78 214.396 1532.01 212.968 1529.7 210.111C1527.46 207.188 1526.34 203.234 1526.34 198.251V196.457C1525.15 198.716 1523.8 200.975 1522.28 203.234C1520.83 205.493 1519.14 207.52 1517.23 209.314C1515.38 211.108 1513.3 212.569 1510.99 213.699C1508.68 214.828 1506.11 215.393 1503.27 215.393C1498.98 215.393 1495.18 214.562 1491.88 212.901C1488.58 211.24 1485.81 209.015 1483.56 206.224C1481.32 203.367 1479.64 200.045 1478.51 196.258C1477.39 192.471 1476.83 188.451 1476.83 184.199C1476.83 178.419 1477.82 172.672 1479.8 166.958C1481.85 161.177 1484.69 156.028 1488.32 151.51C1492.01 146.992 1496.4 143.338 1501.49 140.548C1506.63 137.691 1512.34 136.262 1518.61 136.262C1521.12 136.262 1523.63 136.495 1526.14 136.96C1528.65 137.425 1531.02 138.189 1533.27 139.252C1535.58 140.249 1537.66 141.577 1539.51 143.238C1541.42 144.899 1542.97 146.926 1544.16 149.318L1529.41 155.596C1528.61 154.334 1527.69 153.138 1526.63 152.009C1525.64 150.813 1524.52 149.783 1523.27 148.919C1522.08 148.055 1520.79 147.358 1519.41 146.826C1518.02 146.295 1516.57 146.029 1515.05 146.029C1511.62 146.029 1508.55 147.092 1505.84 149.218C1503.2 151.344 1500.92 153.969 1499.01 157.091C1497.16 160.214 1495.74 163.536 1494.75 167.057C1493.76 170.579 1493.27 173.768 1493.27 176.625C1493.27 179.15 1493.5 182.007 1493.96 185.196C1494.49 188.318 1495.38 191.275 1496.63 194.065C1497.89 196.856 1499.54 199.215 1501.58 201.141C1503.63 203.068 1506.2 204.032 1509.31 204.032C1511.75 204.032 1513.86 203.5 1515.64 202.437C1517.43 201.308 1518.94 199.879 1520.2 198.152C1521.45 196.358 1522.48 194.331 1523.27 192.072C1524.13 189.747 1524.75 187.388 1525.15 184.996C1525.61 182.604 1525.91 180.246 1526.04 177.92C1526.24 175.529 1526.34 173.402 1526.34 171.542V164.665L1544.36 158.287V198.75C1544.36 200.078 1544.69 201.308 1545.35 202.437C1546.01 203.5 1547.03 204.032 1548.42 204.032C1550.07 204.032 1551.55 203.434 1552.87 202.238C1554.26 200.975 1555.35 199.713 1556.14 198.451L1558.81 201.54Z" fill="#508CD2"/>
<path d="M1618.7 202.537C1617.51 204.397 1616.06 206.091 1614.34 207.619C1612.62 209.081 1610.74 210.343 1608.7 211.407C1606.65 212.47 1604.5 213.3 1602.26 213.898C1600.02 214.496 1597.8 214.795 1595.63 214.795C1592.72 214.795 1590.21 214.263 1588.1 213.2C1586.05 212.071 1584.37 210.609 1583.05 208.815C1581.73 207.021 1580.74 204.929 1580.08 202.537C1579.49 200.145 1579.19 197.653 1579.19 195.062C1579.19 191.674 1579.69 188.053 1580.68 184.199C1581.73 180.279 1583.12 176.425 1584.83 172.638C1586.62 168.851 1588.63 165.33 1590.87 162.074C1593.12 158.819 1595.49 156.128 1598 154.002C1595.69 155.53 1593.15 156.726 1590.38 157.59C1587.67 158.453 1584.9 158.885 1582.06 158.885C1580.02 158.885 1578.23 158.719 1576.71 158.387C1575.2 158.055 1573.51 157.423 1571.67 156.493L1561.37 178.12L1557.11 176.425L1567.8 154.4C1566.68 153.603 1565.46 152.607 1564.14 151.411C1562.89 150.148 1561.96 148.919 1561.37 147.723L1575.13 132.176C1575.72 133.97 1576.55 135.797 1577.61 137.657C1578.66 139.451 1579.88 141.079 1581.27 142.541C1582.72 143.936 1584.31 145.099 1586.02 146.029C1587.8 146.959 1589.72 147.424 1591.76 147.424C1595.26 147.424 1598.66 146.793 1601.96 145.531C1605.26 144.202 1608.33 142.607 1611.17 140.747L1613.84 143.438C1611.34 145.763 1608.79 148.354 1606.22 151.211C1603.71 154.002 1601.43 156.992 1599.39 160.181C1597.34 163.37 1595.69 166.725 1594.44 170.247C1593.18 173.768 1592.56 177.322 1592.56 180.91C1592.56 182.97 1592.82 185.295 1593.35 187.887C1593.94 190.411 1594.83 192.836 1596.02 195.162C1597.21 197.421 1598.7 199.348 1600.48 200.942C1602.26 202.47 1604.41 203.234 1606.91 203.234C1608.63 203.234 1610.28 202.935 1611.86 202.337C1613.51 201.673 1615 200.876 1616.32 199.945L1618.7 202.537Z" fill="#508CD2"/>
<path d="M1694.12 193.966C1691.81 196.956 1689.27 199.746 1686.5 202.337C1683.79 204.929 1680.82 207.188 1677.59 209.114C1674.42 211.041 1671.05 212.569 1667.49 213.699C1663.92 214.828 1660.23 215.393 1656.4 215.393C1651.52 215.393 1647.03 214.529 1642.93 212.802C1638.84 211.008 1635.31 208.583 1632.34 205.527C1629.37 202.404 1627.06 198.75 1625.41 194.564C1623.76 190.312 1622.93 185.76 1622.93 180.91C1622.93 176.924 1623.49 173.004 1624.62 169.15C1625.74 165.297 1627.32 161.676 1629.37 158.287C1631.42 154.899 1633.83 151.776 1636.6 148.919C1639.44 145.996 1642.54 143.504 1645.9 141.444C1649.27 139.385 1652.84 137.79 1656.6 136.661C1660.36 135.465 1664.22 134.867 1668.18 134.867C1670.95 134.867 1673.56 135.199 1676 135.863C1678.51 136.528 1680.72 137.591 1682.64 139.053C1684.55 140.448 1686.07 142.275 1687.19 144.534C1688.31 146.727 1688.88 149.351 1688.88 152.407C1688.88 154.932 1688.12 157.59 1686.6 160.38C1685.15 163.171 1683.2 165.961 1680.76 168.752C1678.38 171.542 1675.67 174.299 1672.64 177.023C1669.6 179.681 1666.5 182.173 1663.33 184.498C1660.23 186.757 1657.22 188.75 1654.32 190.478C1651.42 192.205 1648.88 193.534 1646.7 194.464C1649.14 197.52 1651.98 200.012 1655.21 201.939C1658.45 203.865 1661.88 204.829 1665.51 204.829C1667.82 204.829 1670.16 204.397 1672.54 203.533C1674.92 202.603 1677.19 201.44 1679.37 200.045C1681.61 198.65 1683.73 197.122 1685.71 195.461C1687.75 193.8 1689.57 192.238 1691.15 190.777L1694.12 193.966ZM1670.26 156.095C1670.26 154.567 1670 153.105 1669.47 151.71C1669.01 150.314 1668.31 149.118 1667.39 148.122C1666.47 147.059 1665.34 146.228 1664.02 145.63C1662.77 144.966 1661.32 144.634 1659.67 144.634C1656.7 144.634 1653.96 145.697 1651.45 147.823C1648.94 149.882 1646.76 152.44 1644.91 155.497C1643.13 158.553 1641.71 161.809 1640.66 165.263C1639.67 168.652 1639.17 171.642 1639.17 174.233C1639.17 176.758 1639.57 179.349 1640.36 182.007C1641.15 184.664 1642.24 187.222 1643.63 189.68C1646.27 188.219 1649.14 186.192 1652.24 183.601C1655.34 181.01 1658.22 178.186 1660.86 175.13C1663.56 172.007 1665.81 168.785 1667.59 165.463C1669.37 162.141 1670.26 159.018 1670.26 156.095Z" fill="#508CD2"/>
<path d="M509.124 319.951V275.307H525.189C529.297 275.307 532.404 275.791 534.509 276.758C536.614 277.705 538.035 279.095 538.771 280.926C539.527 282.758 539.905 284.971 539.905 287.564C539.905 289.54 539.486 291.279 538.648 292.782C537.81 294.285 536.359 295.386 534.294 296.086C536.89 296.682 538.832 297.989 540.119 300.007C541.407 302.003 542.051 304.421 542.051 307.262C542.051 311.687 540.814 314.908 538.341 316.925C535.868 318.942 531.934 319.951 526.538 319.951H509.124ZM515.317 294.233H526.691C529.491 294.233 531.361 293.636 532.302 292.442C533.262 291.228 533.743 289.623 533.743 287.626C533.743 285.465 533.467 283.839 532.915 282.748C532.383 281.657 531.423 280.926 530.033 280.556C528.663 280.165 526.732 279.969 524.238 279.969H515.317V294.233ZM515.317 315.351H526.078C528.367 315.351 530.237 315.124 531.688 314.672C533.16 314.219 534.243 313.365 534.938 312.109C535.633 310.854 535.981 309.011 535.981 306.583C535.981 305.224 535.746 303.927 535.275 302.693C534.826 301.437 533.998 300.418 532.792 299.636C531.586 298.854 529.849 298.463 527.58 298.463H515.317V315.351Z" fill="#508CD2"/>
<path d="M550.513 308.404V297.012C550.513 293.924 551.565 291.424 553.671 289.509C555.776 287.575 559.158 286.607 563.819 286.607C568.274 286.607 571.555 287.492 573.66 289.262C575.765 291.012 576.818 293.441 576.818 296.549V304.329H556.277V308.929C556.277 311.584 556.798 313.457 557.84 314.548C558.903 315.639 560.967 316.184 564.033 316.184C565.852 316.184 567.283 316.123 568.325 315.999C569.388 315.855 570.165 315.443 570.655 314.764C571.166 314.064 571.504 312.891 571.667 311.245H576.757C576.491 313.817 575.929 315.783 575.07 317.142C574.232 318.479 572.934 319.395 571.177 319.889C569.419 320.383 567.038 320.63 564.033 320.63C559.189 320.63 555.725 319.611 553.64 317.574C551.555 315.536 550.513 312.48 550.513 308.404ZM571.238 300.408V295.931C571.238 293.955 570.553 292.648 569.184 292.01C567.835 291.372 566.046 291.053 563.819 291.053C561.529 291.053 559.7 291.454 558.331 292.257C556.961 293.06 556.277 294.47 556.277 296.487V300.408H571.238Z" fill="#508CD2"/>
<path d="M598.616 320.63C595.387 320.63 592.801 320.116 590.859 319.087C588.938 318.037 587.548 316.658 586.69 314.949C585.831 313.221 585.402 311.348 585.402 309.33V296.857C585.402 293.77 586.567 291.29 588.897 289.417C591.248 287.544 594.436 286.607 598.463 286.607C601.059 286.607 603.317 286.916 605.238 287.533C607.16 288.13 608.641 289.221 609.684 290.806C610.747 292.391 611.278 294.655 611.278 297.598L605.79 298.123C605.79 296.127 605.565 294.624 605.116 293.616C604.666 292.607 603.92 291.928 602.878 291.578C601.835 291.228 600.415 291.053 598.616 291.053C596.143 291.053 594.283 291.506 593.036 292.412C591.789 293.297 591.166 294.83 591.166 297.012V309.824C591.166 312.171 591.82 313.817 593.128 314.764C594.457 315.711 596.286 316.184 598.616 316.184C600.517 316.184 601.958 316.051 602.939 315.783C603.94 315.495 604.646 314.939 605.054 314.116C605.463 313.272 605.739 312.027 605.882 310.38H611.217C611.012 312.891 610.481 314.898 609.623 316.401C608.764 317.903 607.446 318.984 605.668 319.642C603.91 320.301 601.559 320.63 598.616 320.63Z" fill="#508CD2"/>
<path d="M629.029 320.63C626.638 320.63 624.686 320.219 623.174 319.395C621.682 318.551 620.578 317.45 619.862 316.092C619.168 314.713 618.82 313.241 618.82 311.677C618.82 310.03 619.137 308.651 619.771 307.54C620.425 306.408 621.641 305.389 623.419 304.483C625.218 303.557 627.844 302.59 631.298 301.581C633.097 301.046 634.538 300.573 635.621 300.161C636.704 299.749 637.491 299.224 637.982 298.586C638.472 297.948 638.718 297.032 638.718 295.839C638.718 294.953 638.574 294.151 638.288 293.43C638.023 292.71 637.461 292.134 636.602 291.701C635.764 291.269 634.476 291.053 632.739 291.053C630.573 291.053 628.989 291.279 627.987 291.732C626.985 292.185 626.342 292.782 626.056 293.523C625.79 294.243 625.657 295.046 625.657 295.931V297.382H620.108V295.9C620.108 292.669 621.181 290.312 623.327 288.83C625.473 287.348 628.672 286.607 632.923 286.607C637.215 286.607 640.21 287.616 641.906 289.633C643.623 291.65 644.481 294.346 644.481 297.722V311.677C644.481 313.406 644.696 314.517 645.125 315.011C645.575 315.505 646.495 315.752 647.884 315.752L647.21 320.198H646.045C643.878 320.198 642.315 319.776 641.354 318.932C640.394 318.068 639.668 316.864 639.177 315.32C638.707 316.061 638.053 316.843 637.215 317.666C636.398 318.49 635.325 319.189 633.996 319.766C632.688 320.342 631.032 320.63 629.029 320.63ZM629.735 316.308C630.9 316.308 632.116 316.061 633.383 315.567C634.65 315.052 635.774 314.383 636.755 313.56C637.757 312.716 638.411 311.79 638.718 310.781V302.168C638.268 302.621 637.481 303.217 636.357 303.958C635.253 304.679 633.669 305.337 631.605 305.934C629.091 306.655 627.241 307.396 626.056 308.157C624.89 308.919 624.308 310.03 624.308 311.492C624.308 313.138 624.727 314.353 625.565 315.135C626.423 315.917 627.813 316.308 629.735 316.308Z" fill="#508CD2"/>
<path d="M667.291 320.63C664.634 320.63 662.478 320.188 660.822 319.303C659.187 318.418 657.992 317.244 657.235 315.783C656.479 314.322 656.101 312.727 656.101 310.998V287.225H661.865V311.028C661.865 312.655 662.457 313.92 663.643 314.826C664.828 315.732 666.423 316.184 668.426 316.184C671.246 316.184 673.341 315.567 674.711 314.332C676.08 313.097 676.765 311.79 676.765 310.411V287.225H682.529V319.951H677.378L676.765 315.845C675.947 317.306 674.752 318.469 673.178 319.334C671.624 320.198 669.662 320.63 667.291 320.63Z" fill="#508CD2"/>
<path d="M692.585 317.975L693.995 313.715C694.71 314.106 695.947 314.62 697.705 315.258C699.462 315.876 701.445 316.184 703.652 316.184C706.207 316.184 707.934 315.711 708.834 314.764C709.733 313.817 710.183 312.655 710.183 311.275C710.183 309.999 710.009 308.991 709.661 308.25C709.334 307.509 708.404 306.85 706.872 306.274L699.146 303.434C696.795 302.569 695.15 301.55 694.21 300.377C693.269 299.204 692.799 297.598 692.799 295.561C692.799 292.803 693.556 290.621 695.068 289.015C696.581 287.41 699.34 286.607 703.346 286.607C705.635 286.607 707.73 286.792 709.631 287.163C711.552 287.513 713.105 287.925 714.291 288.398L712.973 292.844C712.359 292.576 711.552 292.309 710.551 292.041C709.549 291.773 708.507 291.547 707.423 291.362C706.34 291.156 705.339 291.053 704.419 291.053C701.782 291.053 700.076 291.393 699.299 292.072C698.543 292.731 698.165 293.801 698.165 295.283C698.165 296.291 698.348 297.043 698.716 297.537C699.105 298.01 699.851 298.463 700.954 298.895L708.588 301.89C710.408 302.59 711.777 303.341 712.697 304.144C713.637 304.926 714.271 305.873 714.598 306.984C714.925 308.095 715.088 309.505 715.088 311.214C715.088 312.922 714.73 314.497 714.015 315.937C713.32 317.358 712.186 318.5 710.612 319.364C709.059 320.208 706.994 320.63 704.419 320.63C701.394 320.63 698.849 320.291 696.785 319.611C694.721 318.932 693.32 318.387 692.585 317.975Z" fill="#508CD2"/>
<path d="M723.182 308.404V297.012C723.182 293.924 724.235 291.424 726.34 289.509C728.445 287.575 731.828 286.607 736.488 286.607C740.943 286.607 744.224 287.492 746.329 289.262C748.434 291.012 749.487 293.441 749.487 296.549V304.329H728.946V308.929C728.946 311.584 729.467 313.457 730.509 314.548C731.572 315.639 733.637 316.184 736.702 316.184C738.521 316.184 739.952 316.123 740.995 315.999C742.057 315.855 742.834 315.443 743.325 314.764C743.836 314.064 744.173 312.891 744.336 311.245H749.426C749.16 313.817 748.598 315.783 747.739 317.142C746.901 318.479 745.604 319.395 743.846 319.889C742.088 320.383 739.707 320.63 736.702 320.63C731.858 320.63 728.394 319.611 726.309 317.574C724.224 315.536 723.182 312.48 723.182 308.404ZM743.907 300.408V295.931C743.907 293.955 743.222 292.648 741.853 292.01C740.504 291.372 738.716 291.053 736.488 291.053C734.199 291.053 732.369 291.454 731 292.257C729.63 293.06 728.946 294.47 728.946 296.487V300.408H743.907Z" fill="#508CD2"/>
<path d="M759.543 329.028C760.034 328.452 760.606 327.711 761.26 326.805C761.914 325.92 762.486 324.891 762.977 323.718C763.488 322.565 763.743 321.309 763.743 319.951H759.42V312.757H767.3V318.407C767.3 320.363 766.983 322.143 766.349 323.749C765.716 325.354 764.98 326.723 764.142 327.855C763.324 328.987 762.619 329.831 762.026 330.386L759.543 329.028Z" fill="#508CD2"/>
<path d="M790.508 287.225H795.781L802.986 312.943L810.804 287.225H816.353L824.509 312.881L831.468 287.225H836.803L827.299 319.951H821.933L813.625 293.893L805.316 319.951H799.859L790.508 287.225Z" fill="#508CD2"/>
<path d="M842.934 308.404V297.012C842.934 293.924 843.987 291.424 846.092 289.509C848.197 287.575 851.58 286.607 856.24 286.607C860.696 286.607 863.976 287.492 866.082 289.262C868.187 291.012 869.239 293.441 869.239 296.549V304.329H848.698V308.929C848.698 311.584 849.219 313.457 850.262 314.548C851.325 315.639 853.389 316.184 856.455 316.184C858.274 316.184 859.705 316.123 860.747 315.999C861.81 315.855 862.587 315.443 863.077 314.764C863.588 314.064 863.925 312.891 864.089 311.245H869.178C868.912 313.817 868.35 315.783 867.492 317.142C866.654 318.479 865.356 319.395 863.598 319.889C861.841 320.383 859.459 320.63 856.455 320.63C851.611 320.63 848.146 319.611 846.062 317.574C843.977 315.536 842.934 312.48 842.934 308.404ZM863.66 300.408V295.931C863.66 293.955 862.975 292.648 861.605 292.01C860.257 291.372 858.468 291.053 856.24 291.053C853.951 291.053 852.122 291.454 850.752 292.257C849.383 293.06 848.698 294.47 848.698 296.487V300.408H863.66Z" fill="#508CD2"/>
<path d="M906.735 320.63C903.506 320.63 900.92 320.116 898.978 319.087C897.057 318.037 895.667 316.658 894.809 314.949C893.95 313.221 893.521 311.348 893.521 309.33V296.857C893.521 293.77 894.686 291.29 897.016 289.417C899.367 287.544 902.555 286.607 906.582 286.607C909.177 286.607 911.436 286.916 913.357 287.533C915.278 288.13 916.76 289.221 917.803 290.806C918.866 292.391 919.397 294.655 919.397 297.598L913.909 298.123C913.909 296.127 913.684 294.624 913.235 293.616C912.785 292.607 912.039 291.928 910.996 291.578C909.954 291.228 908.534 291.053 906.735 291.053C904.262 291.053 902.402 291.506 901.155 292.412C899.908 293.297 899.285 294.83 899.285 297.012V309.824C899.285 312.171 899.939 313.817 901.247 314.764C902.576 315.711 904.405 316.184 906.735 316.184C908.636 316.184 910.077 316.051 911.058 315.783C912.059 315.495 912.764 314.939 913.173 314.116C913.582 313.272 913.858 312.027 914.001 310.38H919.336C919.131 312.891 918.6 314.898 917.741 316.401C916.883 317.903 915.565 318.984 913.786 319.642C912.029 320.301 909.678 320.63 906.735 320.63Z" fill="#508CD2"/>
<path d="M937.148 320.63C934.757 320.63 932.805 320.219 931.292 319.395C929.8 318.551 928.697 317.45 927.981 316.092C927.286 314.713 926.939 313.241 926.939 311.677C926.939 310.03 927.256 308.651 927.889 307.54C928.543 306.408 929.76 305.389 931.538 304.483C933.336 303.557 935.963 302.59 939.417 301.581C941.216 301.046 942.657 300.573 943.74 300.161C944.823 299.749 945.61 299.224 946.101 298.586C946.591 297.948 946.836 297.032 946.836 295.839C946.836 294.953 946.693 294.151 946.407 293.43C946.141 292.71 945.579 292.134 944.721 291.701C943.883 291.269 942.595 291.053 940.858 291.053C938.691 291.053 937.107 291.279 936.106 291.732C935.104 292.185 934.461 292.782 934.174 293.523C933.909 294.243 933.776 295.046 933.776 295.931V297.382H928.227V295.9C928.227 292.669 929.3 290.312 931.446 288.83C933.592 287.348 936.791 286.607 941.042 286.607C945.334 286.607 948.328 287.616 950.025 289.633C951.742 291.65 952.6 294.346 952.6 297.722V311.677C952.6 313.406 952.815 314.517 953.244 315.011C953.694 315.505 954.613 315.752 956.003 315.752L955.329 320.198H954.164C951.997 320.198 950.434 319.776 949.473 318.932C948.512 318.068 947.787 316.864 947.296 315.32C946.826 316.061 946.172 316.843 945.334 317.666C944.517 318.49 943.443 319.189 942.115 319.766C940.807 320.342 939.151 320.63 937.148 320.63ZM937.853 316.308C939.018 316.308 940.235 316.061 941.502 315.567C942.769 315.052 943.893 314.383 944.874 313.56C945.876 312.716 946.53 311.79 946.836 310.781V302.168C946.387 302.621 945.6 303.217 944.476 303.958C943.372 304.679 941.788 305.337 939.724 305.934C937.21 306.655 935.36 307.396 934.174 308.157C933.009 308.919 932.427 310.03 932.427 311.492C932.427 313.138 932.846 314.353 933.684 315.135C934.542 315.917 935.932 316.308 937.853 316.308Z" fill="#508CD2"/>
<path d="M964.526 287.225H970.29V291.856C970.76 290.621 971.608 289.633 972.835 288.892C974.082 288.13 975.492 287.585 977.066 287.256C978.64 286.926 980.142 286.762 981.573 286.762L981.389 291.732C979.549 291.732 977.781 291.99 976.085 292.504C974.388 292.998 972.998 293.646 971.915 294.449C970.832 295.252 970.29 296.116 970.29 297.043V319.951H964.526V287.225Z" fill="#508CD2"/>
<path d="M987.827 308.404V297.012C987.827 293.924 988.88 291.424 990.985 289.509C993.09 287.575 996.473 286.607 1001.13 286.607C1005.59 286.607 1008.87 287.492 1010.97 289.262C1013.08 291.012 1014.13 293.441 1014.13 296.549V304.329H993.591V308.929C993.591 311.584 994.112 313.457 995.154 314.548C996.217 315.639 998.281 316.184 1001.35 316.184C1003.17 316.184 1004.6 316.123 1005.64 315.999C1006.7 315.855 1007.48 315.443 1007.97 314.764C1008.48 314.064 1008.82 312.891 1008.98 311.245H1014.07C1013.8 313.817 1013.24 315.783 1012.38 317.142C1011.55 318.479 1010.25 319.395 1008.49 319.889C1006.73 320.383 1004.35 320.63 1001.35 320.63C996.503 320.63 993.039 319.611 990.954 317.574C988.869 315.536 987.827 312.48 987.827 308.404ZM1008.55 300.408V295.931C1008.55 293.955 1007.87 292.648 1006.5 292.01C1005.15 291.372 1003.36 291.053 1001.13 291.053C998.844 291.053 997.014 291.454 995.645 292.257C994.275 293.06 993.591 294.47 993.591 296.487V300.408H1008.55Z" fill="#508CD2"/>
<path d="M1039.7 308.898V273.486H1045.47V308.96C1045.47 310.73 1045.63 312.078 1045.96 313.004C1046.28 313.91 1046.88 314.528 1047.73 314.857C1048.59 315.166 1049.83 315.32 1051.44 315.32H1052.46L1051.78 320.198H1050.13C1047.75 320.198 1045.79 319.92 1044.24 319.364C1042.71 318.809 1041.56 317.718 1040.8 316.092C1040.07 314.466 1039.7 312.068 1039.7 308.898Z" fill="#508CD2"/>
<path d="M1061.53 287.225H1067.29V319.951H1061.53V287.225ZM1061.44 273.486H1067.39V279.908H1061.44V273.486Z" fill="#508CD2"/>
<path d="M1079.19 273.486H1084.95V303.773L1100.5 287.225H1106.81L1093.6 301.612L1108.13 319.951H1101.48L1089.83 304.761L1084.95 309.639V319.951H1079.19V273.486Z" fill="#508CD2"/>
<path d="M1113.16 308.404V297.012C1113.16 293.924 1114.21 291.424 1116.32 289.509C1118.42 287.575 1121.8 286.607 1126.47 286.607C1130.92 286.607 1134.2 287.492 1136.31 289.262C1138.41 291.012 1139.46 293.441 1139.46 296.549V304.329H1118.92V308.929C1118.92 311.584 1119.44 313.457 1120.49 314.548C1121.55 315.639 1123.61 316.184 1126.68 316.184C1128.5 316.184 1129.93 316.123 1130.97 315.999C1132.03 315.855 1132.81 315.443 1133.3 314.764C1133.81 314.064 1134.15 312.891 1134.31 311.245H1139.4C1139.14 313.817 1138.58 315.783 1137.72 317.142C1136.88 318.479 1135.58 319.395 1133.82 319.889C1132.07 320.383 1129.68 320.63 1126.68 320.63C1121.84 320.63 1118.37 319.611 1116.29 317.574C1114.2 315.536 1113.16 312.48 1113.16 308.404ZM1133.88 300.408V295.931C1133.88 293.955 1133.2 292.648 1131.83 292.01C1130.48 291.372 1128.69 291.053 1126.47 291.053C1124.18 291.053 1122.35 291.454 1120.98 292.257C1119.61 293.06 1118.92 294.47 1118.92 296.487V300.408H1133.88Z" fill="#508CD2"/>
<path d="M1173.46 320.63C1171.07 320.63 1169.12 320.219 1167.61 319.395C1166.12 318.551 1165.01 317.45 1164.3 316.092C1163.6 314.713 1163.26 313.241 1163.26 311.677C1163.26 310.03 1163.57 308.651 1164.21 307.54C1164.86 306.408 1166.08 305.389 1167.85 304.483C1169.65 303.557 1172.28 302.59 1175.73 301.581C1177.53 301.046 1178.97 300.573 1180.06 300.161C1181.14 299.749 1181.93 299.224 1182.42 298.586C1182.91 297.948 1183.15 297.032 1183.15 295.839C1183.15 294.953 1183.01 294.151 1182.72 293.43C1182.46 292.71 1181.9 292.134 1181.04 291.701C1180.2 291.269 1178.91 291.053 1177.17 291.053C1175.01 291.053 1173.42 291.279 1172.42 291.732C1171.42 292.185 1170.78 292.782 1170.49 293.523C1170.23 294.243 1170.09 295.046 1170.09 295.931V297.382H1164.54V295.9C1164.54 292.669 1165.62 290.312 1167.76 288.83C1169.91 287.348 1173.11 286.607 1177.36 286.607C1181.65 286.607 1184.64 287.616 1186.34 289.633C1188.06 291.65 1188.92 294.346 1188.92 297.722V311.677C1188.92 313.406 1189.13 314.517 1189.56 315.011C1190.01 315.505 1190.93 315.752 1192.32 315.752L1191.65 320.198H1190.48C1188.31 320.198 1186.75 319.776 1185.79 318.932C1184.83 318.068 1184.1 316.864 1183.61 315.32C1183.14 316.061 1182.49 316.843 1181.65 317.666C1180.83 318.49 1179.76 319.189 1178.43 319.766C1177.12 320.342 1175.47 320.63 1173.46 320.63ZM1174.17 316.308C1175.33 316.308 1176.55 316.061 1177.82 315.567C1179.09 315.052 1180.21 314.383 1181.19 313.56C1182.19 312.716 1182.85 311.79 1183.15 310.781V302.168C1182.7 302.621 1181.92 303.217 1180.79 303.958C1179.69 304.679 1178.1 305.337 1176.04 305.934C1173.53 306.655 1171.68 307.396 1170.49 308.157C1169.33 308.919 1168.74 310.03 1168.74 311.492C1168.74 313.138 1169.16 314.353 1170 315.135C1170.86 315.917 1172.25 316.308 1174.17 316.308Z" fill="#508CD2"/>
<path d="M1219.64 291.609H1214.21V287.225H1219.64V282.254C1219.64 279.187 1220.46 276.964 1222.12 275.585C1223.8 274.186 1226.3 273.486 1229.63 273.486H1233.28L1233.65 277.592H1230.09C1228.33 277.592 1227.11 277.983 1226.41 278.765C1225.74 279.547 1225.4 280.525 1225.4 281.698V287.225H1233.28V291.609H1225.4V319.951H1219.64V291.609Z" fill="#508CD2"/>
<path d="M1249.31 320.63C1246.92 320.63 1244.97 320.219 1243.46 319.395C1241.97 318.551 1240.86 317.45 1240.15 316.092C1239.45 314.713 1239.1 313.241 1239.1 311.677C1239.1 310.03 1239.42 308.651 1240.06 307.54C1240.71 306.408 1241.93 305.389 1243.7 304.483C1245.5 303.557 1248.13 302.59 1251.58 301.581C1253.38 301.046 1254.82 300.573 1255.91 300.161C1256.99 299.749 1257.78 299.224 1258.27 298.586C1258.76 297.948 1259 297.032 1259 295.839C1259 294.953 1258.86 294.151 1258.57 293.43C1258.31 292.71 1257.75 292.134 1256.89 291.701C1256.05 291.269 1254.76 291.053 1253.02 291.053C1250.86 291.053 1249.27 291.279 1248.27 291.732C1247.27 292.185 1246.63 292.782 1246.34 293.523C1246.07 294.243 1245.94 295.046 1245.94 295.931V297.382H1240.39V295.9C1240.39 292.669 1241.47 290.312 1243.61 288.83C1245.76 287.348 1248.96 286.607 1253.21 286.607C1257.5 286.607 1260.49 287.616 1262.19 289.633C1263.91 291.65 1264.77 294.346 1264.77 297.722V311.677C1264.77 313.406 1264.98 314.517 1265.41 315.011C1265.86 315.505 1266.78 315.752 1268.17 315.752L1267.49 320.198H1266.33C1264.16 320.198 1262.6 319.776 1261.64 318.932C1260.68 318.068 1259.95 316.864 1259.46 315.32C1258.99 316.061 1258.34 316.843 1257.5 317.666C1256.68 318.49 1255.61 319.189 1254.28 319.766C1252.97 320.342 1251.32 320.63 1249.31 320.63ZM1250.02 316.308C1251.18 316.308 1252.4 316.061 1253.67 315.567C1254.93 315.052 1256.06 314.383 1257.04 313.56C1258.04 312.716 1258.7 311.79 1259 310.781V302.168C1258.55 302.621 1257.77 303.217 1256.64 303.958C1255.54 304.679 1253.95 305.337 1251.89 305.934C1249.38 306.655 1247.53 307.396 1246.34 308.157C1245.18 308.919 1244.59 310.03 1244.59 311.492C1244.59 313.138 1245.01 314.353 1245.85 315.135C1246.71 315.917 1248.1 316.308 1250.02 316.308Z" fill="#508CD2"/>
<path d="M1276.69 287.225H1282.46V290.405C1283.42 289.293 1284.62 288.388 1286.07 287.688C1287.52 286.967 1289.43 286.607 1291.78 286.607C1294.29 286.607 1296.31 287.009 1297.85 287.811C1299.4 288.593 1300.55 289.623 1301.31 290.899C1302.72 289.499 1304.25 288.439 1305.91 287.719C1307.59 286.978 1309.6 286.607 1311.95 286.607C1314.63 286.607 1316.74 287.05 1318.3 287.935C1319.85 288.799 1320.95 289.962 1321.61 291.424C1322.28 292.864 1322.62 294.449 1322.62 296.178V319.951H1316.85V295.839C1316.85 294.213 1316.29 293.008 1315.17 292.226C1314.04 291.444 1312.48 291.053 1310.48 291.053C1307.66 291.053 1305.64 291.588 1304.44 292.659C1303.23 293.729 1302.63 295.056 1302.63 296.641V319.951H1296.87V295.839C1296.87 294.213 1296.27 293.008 1295.09 292.226C1293.9 291.444 1292.31 291.053 1290.3 291.053C1287.48 291.053 1285.47 291.588 1284.26 292.659C1283.06 293.729 1282.46 295.056 1282.46 296.641V319.951H1276.69V287.225Z" fill="#508CD2"/>
<path d="M1334.33 287.225H1340.09V319.951H1334.33V287.225ZM1334.24 273.486H1340.19V279.908H1334.24V273.486Z" fill="#508CD2"/>
<path d="M1352.11 308.898V273.486H1357.88V308.96C1357.88 310.73 1358.04 312.078 1358.37 313.004C1358.69 313.91 1359.29 314.528 1360.14 314.857C1361 315.166 1362.24 315.32 1363.85 315.32H1364.87L1364.19 320.198H1362.54C1360.17 320.198 1358.2 319.92 1356.65 319.364C1355.12 318.809 1353.97 317.718 1353.22 316.092C1352.48 314.466 1352.11 312.068 1352.11 308.898Z" fill="#508CD2"/>
<path d="M1373.7 332.486V327.947C1375.96 327.947 1377.81 327.484 1379.25 326.558C1380.68 325.632 1381.88 323.985 1382.86 321.618L1383.45 320.229L1369.96 287.225H1375.9L1385.99 313.344L1394.36 287.225H1400.12L1387.74 322.977C1386.63 326.167 1385.03 328.544 1382.92 330.109C1380.82 331.693 1377.74 332.486 1373.7 332.486Z" fill="#508CD2"/>
<path fill-rule="evenodd" clip-rule="evenodd" d="M199.419 0.64061C201.794 0.535934 204.174 0.48584 206.562 0.48584C297.737 0.48584 371.651 74.3997 371.651 165.575C371.651 168.951 371.551 172.307 371.349 175.643C371.028 180.965 366.454 185.02 361.131 184.699C355.809 184.378 351.755 179.803 352.076 174.481C352.253 171.536 352.342 168.568 352.342 165.575C352.342 85.0635 287.073 19.7945 206.562 19.7945C204.442 19.7945 202.343 19.839 200.262 19.9309L200.247 19.9315C122.668 23.2319 60.7813 87.181 60.7813 165.575C60.7813 168.568 60.8703 171.536 61.0479 174.481C61.369 179.803 57.3147 184.378 51.9924 184.699C46.6701 185.02 42.0953 180.965 41.7742 175.643C41.573 172.307 41.4726 168.951 41.4726 165.575C41.4726 76.795 111.552 4.38261 199.419 0.64061Z" fill="#508CD2"/>
<path d="M199.837 320.868V402.857H188.262C178.539 384.674 162.553 370.349 143.186 362.757C140.821 361.828 138.406 361.001 135.947 360.28C81.4926 340.527 37.6764 298.576 15.435 245.364C8.34542 228.401 20.9216 209.701 39.3049 209.701C49.6952 209.701 59.0908 215.92 63.0983 225.502C85.7368 279.642 138.129 318.241 199.833 320.868H199.837Z" fill="#508CD2"/>
<path fill-rule="evenodd" clip-rule="evenodd" d="M336.117 3.75958C339.641 -0.241825 345.741 -0.62886 349.743 2.89512C378.493 28.2151 400.485 61.0523 412.646 98.3503C414.298 103.42 411.529 108.869 406.459 110.522C401.39 112.174 395.941 109.405 394.288 104.336C383.22 70.3881 363.192 40.4684 336.981 17.3855C332.98 13.8615 332.593 7.76099 336.117 3.75958Z" fill="#508CD2"/>
<path fill-rule="evenodd" clip-rule="evenodd" d="M77.0068 3.75958C80.5308 7.76099 80.1437 13.8615 76.1423 17.3855C49.9322 40.4684 29.9039 70.3881 18.8358 104.336C17.183 109.405 11.7336 112.174 6.66431 110.522C1.595 108.869 -1.17464 103.42 0.478148 98.3503C12.6387 61.0523 34.6305 28.2151 63.3809 2.89512C67.3823 -0.62886 73.4828 -0.241825 77.0068 3.75958Z" fill="#508CD2"/>
<path d="M199.837 320.868C146.319 318.591 99.8103 289.253 73.6379 246.187C63.9144 230.187 75.5724 209.701 94.2982 209.701C102.659 209.701 110.47 214.011 114.809 221.159C126.085 239.732 142.836 254.607 162.826 263.547C185.392 273.638 199.833 296.149 199.833 320.872L199.837 320.868Z" fill="#3172BF"/>
<path d="M213.622 320.868V402.857H225.197C234.92 384.674 250.906 370.349 270.273 362.757C272.638 361.828 275.053 361.001 277.512 360.28C331.966 340.527 375.782 298.576 398.024 245.364C405.113 228.401 392.537 209.701 374.154 209.701C363.764 209.701 354.368 215.92 350.361 225.502C327.722 279.642 275.33 318.241 213.626 320.868H213.622Z" fill="#508CD2"/>
<path d="M213.622 320.868C267.14 318.591 313.649 289.253 339.821 246.187C349.544 230.187 337.886 209.701 319.161 209.701C310.8 209.701 302.989 214.011 298.65 221.159C287.374 239.732 270.623 254.607 250.633 263.547C228.067 273.638 213.626 296.149 213.626 320.872L213.622 320.868Z" fill="#3172BF"/>
<path d="M206.569 143.662C216.629 143.662 224.785 135.588 224.785 125.628C224.785 115.668 216.629 107.594 206.569 107.594C196.509 107.594 188.353 115.668 188.353 125.628C188.353 135.588 196.509 143.662 206.569 143.662Z" fill="#508CD2"/>
<path d="M270.514 149.436C279.234 149.436 286.303 142.367 286.303 133.647C286.303 124.926 279.234 117.857 270.514 117.857C261.793 117.857 254.724 124.926 254.724 133.647C254.724 142.367 261.793 149.436 270.514 149.436Z" fill="#508CD2"/>
<path d="M280.926 152.092C285.055 152.092 288.402 148.745 288.402 144.616C288.402 140.488 285.055 137.141 280.926 137.141C276.797 137.141 273.45 140.488 273.45 144.616C273.45 148.745 276.797 152.092 280.926 152.092Z" fill="#508CD2"/>
<path d="M147.248 149.436C155.968 149.436 163.037 142.367 163.037 133.647C163.037 124.926 155.968 117.857 147.248 117.857C138.527 117.857 131.458 124.926 131.458 133.647C131.458 142.367 138.527 149.436 147.248 149.436Z" fill="#508CD2"/>
<path fill-rule="evenodd" clip-rule="evenodd" d="M275.216 165.6C276.115 162.284 279.531 160.323 282.848 161.221C285.11 161.834 287.272 163.085 288.965 164.214C290.756 165.408 292.501 166.794 293.989 168.058C295.489 169.334 296.804 170.552 297.741 171.449C298.212 171.899 298.593 172.273 298.861 172.539C298.995 172.672 299.101 172.778 299.175 172.853L299.264 172.943L299.29 172.97L299.302 172.982C299.302 172.982 299.304 172.984 295.032 177.152L299.304 172.984C301.704 175.443 301.655 179.382 299.196 181.782C296.737 184.181 292.8 184.134 290.4 181.676L290.398 181.674L290.389 181.665L290.333 181.608C290.281 181.555 290.199 181.473 290.09 181.365C289.872 181.149 289.549 180.831 289.143 180.443C288.326 179.662 287.195 178.615 285.928 177.538C284.649 176.451 283.307 175.397 282.062 174.567C280.72 173.672 279.896 173.313 279.596 173.232C276.279 172.334 274.318 168.917 275.216 165.6Z" fill="#508CD2"/>
<path fill-rule="evenodd" clip-rule="evenodd" d="M139.093 165.6C139.991 168.917 138.03 172.334 134.714 173.232C134.413 173.313 133.59 173.672 132.247 174.567C131.002 175.397 129.66 176.451 128.381 177.538C127.114 178.615 125.983 179.662 125.167 180.443C124.76 180.831 124.437 181.149 124.219 181.365C124.111 181.473 124.029 181.555 123.977 181.608L123.921 181.665L123.912 181.674C121.512 184.133 117.573 184.182 115.114 181.782C112.654 179.382 112.606 175.443 115.006 172.984L119.277 177.152C115.006 172.984 115.005 172.985 115.006 172.984L115.019 172.97L115.046 172.943L115.134 172.853C115.209 172.778 115.315 172.672 115.448 172.539C115.716 172.273 116.097 171.899 116.568 171.449C117.506 170.552 118.821 169.334 120.321 168.058C121.808 166.794 123.553 165.408 125.344 164.214C127.037 163.085 129.199 161.834 131.461 161.221C134.778 160.323 138.195 162.284 139.093 165.6Z" fill="#508CD2"/>
<path d="M227.699 167.212V257.429C220.73 259.267 213.414 260.243 205.87 260.243C198.326 260.243 191.225 259.293 184.346 257.51V167.212C184.346 156.217 193.243 147.305 204.219 147.305H207.83C218.803 147.305 227.699 156.217 227.699 167.212Z" fill="#508CD2"/>
<path d="M286.303 172.009V217.297C276.303 232.077 262.335 243.957 245.933 251.408V172.009C245.933 161.79 254.218 153.509 264.437 153.509H267.8C278.019 153.509 286.303 161.79 286.303 172.009Z" fill="#508CD2"/>
<path d="M167.431 172.009V252.195C151.219 245.225 137.287 233.964 127.061 219.847V172.009C127.061 161.79 135.346 153.509 145.565 153.509H148.927C159.146 153.509 167.431 161.79 167.431 172.009Z" fill="#508CD2"/>
<path fill-rule="evenodd" clip-rule="evenodd" d="M201.947 152.047C204.157 154.524 203.94 158.324 201.463 160.534C197.535 164.038 191.972 165.926 186.749 167.043C181.35 168.198 175.432 168.704 170.059 168.89C164.656 169.077 159.636 168.946 155.977 168.77C154.142 168.682 152.639 168.582 151.586 168.503C151.059 168.464 150.645 168.429 150.357 168.405C150.214 168.392 150.102 168.382 150.024 168.375L149.932 168.367L149.893 168.363C149.892 168.363 149.891 168.363 150.461 162.415L149.893 168.363C146.589 168.047 144.164 165.111 144.481 161.806C144.798 158.501 147.733 156.079 151.038 156.395L150.465 162.379C151.038 156.395 151.039 156.396 151.038 156.395C151.037 156.395 151.038 156.395 151.038 156.395L151.05 156.397L151.113 156.402C151.172 156.408 151.264 156.416 151.386 156.427C151.632 156.448 152.003 156.478 152.483 156.514C153.443 156.586 154.84 156.679 156.555 156.762C159.994 156.927 164.666 157.048 169.642 156.875C174.648 156.702 179.793 156.237 184.234 155.287C188.851 154.299 191.904 152.95 193.46 151.563C195.937 149.353 199.737 149.569 201.947 152.047Z" fill="#508CD2"/>
<path fill-rule="evenodd" clip-rule="evenodd" d="M209.005 152.047C206.795 154.524 207.012 158.324 209.489 160.534C213.417 164.038 218.981 165.926 224.204 167.043C229.602 168.198 235.521 168.704 240.894 168.89C246.296 169.077 251.317 168.946 254.976 168.77C256.81 168.682 258.314 168.582 259.367 168.503C259.893 168.464 260.308 168.429 260.595 168.405C260.739 168.392 260.85 168.382 260.929 168.375L261.021 168.367L261.059 168.363C261.06 168.363 261.061 168.363 260.491 162.415L261.059 168.363C264.364 168.047 266.788 165.111 266.472 161.806C266.155 158.501 263.219 156.079 259.914 156.395L260.488 162.379C259.914 156.395 259.914 156.396 259.914 156.395C259.915 156.395 259.914 156.395 259.914 156.395L259.902 156.397L259.839 156.402C259.781 156.408 259.689 156.416 259.566 156.427C259.32 156.448 258.95 156.478 258.47 156.514C257.509 156.586 256.113 156.679 254.398 156.762C250.959 156.927 246.286 157.048 241.31 156.875C236.305 156.702 231.16 156.237 226.718 155.287C222.101 154.299 219.048 152.95 217.493 151.563C215.015 149.353 211.216 149.569 209.005 152.047Z" fill="#508CD2"/>
<path fill-rule="evenodd" clip-rule="evenodd" d="M113.905 182.625C112.012 182.381 110.032 183.67 108.927 184.996C108.047 186.052 106.478 186.195 105.422 185.315C104.366 184.435 104.223 182.866 105.103 181.81C106.69 179.906 110.195 177.128 114.542 177.688C117.716 178.098 119.614 180.294 120.632 182.592C121.629 184.843 121.947 187.485 121.947 189.71V212.023C121.947 213.397 120.833 214.511 119.459 214.511C118.084 214.511 116.97 213.397 116.97 212.023V189.71C116.97 187.86 116.691 185.986 116.081 184.608C115.492 183.279 114.773 182.737 113.905 182.625Z" fill="#508CD2"/>
<path fill-rule="evenodd" clip-rule="evenodd" d="M301.707 182.625C303.601 182.381 305.58 183.67 306.685 184.996C307.565 186.052 309.134 186.195 310.19 185.315C311.246 184.435 311.389 182.866 310.509 181.81C308.923 179.906 305.417 177.128 301.071 177.688C297.896 178.098 295.999 180.294 294.98 182.592C293.983 184.843 293.665 187.485 293.665 189.71V212.023C293.665 213.397 294.779 214.511 296.154 214.511C297.528 214.511 298.642 213.397 298.642 212.023V189.71C298.642 187.86 298.921 185.986 299.531 184.608C300.12 183.279 300.84 182.737 301.707 182.625Z" fill="#508CD2"/>
</g>
<defs>
<clipPath id="clip0_604_348">
<rect width="1694.12" height="402.371" fill="white" transform="translate(0 0.48584)"/>
</clipPath>
</defs>
</svg>
