<svg width="38" height="38" viewBox="0 0 38 38" fill="none" xmlns="http://www.w3.org/2000/svg">
<path fill-rule="evenodd" clip-rule="evenodd" d="M28.842 4.57896C28.842 2.05198 30.894 0 33.4209 0C35.9479 0 37.9999 2.05198 37.9999 4.57896C37.9999 7.10595 35.9479 9.15793 33.4209 9.15793C30.894 9.15793 28.842 7.10595 28.842 4.57896ZM21.5268 24.2424L27.0178 17.1573L26.9418 17.1953C27.2458 16.7773 27.3028 16.2453 27.0938 15.7703C26.8867 15.2953 26.4288 14.9723 25.9367 14.9343C25.4218 14.8773 24.9107 15.1053 24.6048 15.5233L20.0088 21.4703L14.7439 17.3283C14.4209 17.0813 14.0409 16.9844 13.6609 17.0243C13.2828 17.0813 12.9408 17.2884 12.7109 17.5924L7.08885 24.9092L6.97295 25.0802C6.64995 25.6863 6.80195 26.4653 7.37195 26.8852C7.63795 27.0562 7.92294 27.1702 8.24594 27.1702C8.68484 27.1892 9.10093 26.9593 9.36693 26.6002L14.1359 20.4614L19.5509 24.5292L19.7219 24.6413C20.3298 24.9643 21.0898 24.8142 21.5268 24.2424ZM25.5548 3.38249C25.4788 3.85749 25.4408 4.33249 25.4408 4.80748C25.4408 9.08245 28.8988 12.5385 33.1547 12.5385C33.6297 12.5385 34.0857 12.4834 34.5607 12.4074V27.7384C34.5607 34.1813 30.7608 38.0002 24.3008 38.0002H10.2618C3.79997 38.0002 0 34.1813 0 27.7384V13.6804C0 7.22046 3.79997 3.38249 10.2618 3.38249H25.5548Z" fill="white"/>
</svg>
