<svg width="37" height="41" viewBox="0 0 37 41" fill="none" xmlns="http://www.w3.org/2000/svg">
<path fill-rule="evenodd" clip-rule="evenodd" d="M27.3433 1.56713L27.3453 3.09553C32.9617 3.53571 36.6718 7.36282 36.6778 13.2319L36.7 30.4111C36.708 36.81 32.688 40.7472 26.2442 40.7574L10.5041 40.7777C4.1006 40.7859 0.0302093 36.755 0.0221571 30.3377L1.35581e-05 13.3603C-0.00803865 7.45249 3.57117 3.63556 9.18758 3.11998L9.18557 1.59158C9.18356 0.694918 9.84786 0.0203833 10.7336 0.0203833C11.6193 0.0183454 12.2837 0.690842 12.2857 1.5875L12.2877 3.01401L24.2452 2.99771L24.2432 1.5712C24.2412 0.674539 24.9055 0.00204249 25.7912 4.61908e-06C26.6568 -0.00203325 27.3413 0.670463 27.3433 1.56713ZM3.10213 13.9899L33.5797 13.9492V13.2359C33.4932 8.85451 31.2949 6.55579 27.3493 6.21343L27.3514 7.78259C27.3514 8.65887 26.6689 9.35378 25.8033 9.35378C24.9176 9.35582 24.2513 8.66295 24.2513 7.78666L24.2492 6.13599L12.2917 6.15229L12.2937 7.80093C12.2937 8.67925 11.6314 9.37213 10.7457 9.37213C9.85995 9.37416 9.19363 8.68333 9.19363 7.805L9.19161 6.23585C5.26616 6.62915 3.09408 8.93602 3.10012 13.3562L3.10213 13.9899ZM24.9558 23.2521V23.2745C24.9759 24.2119 25.7409 24.9231 26.6689 24.9028C27.5748 24.8803 28.2975 24.1039 28.2774 23.1665C28.2351 22.2698 27.5084 21.5382 26.6045 21.5403C25.6785 21.5607 24.9538 22.3147 24.9558 23.2521ZM26.6186 32.4021C25.6926 32.3817 24.9458 31.6094 24.9437 30.6719C24.9236 29.7345 25.6664 28.9581 26.5924 28.9357H26.6126C27.5587 28.9357 28.3257 29.708 28.3257 30.6658C28.3277 31.6236 27.5627 32.4 26.6186 32.4021ZM16.6621 23.2849C16.7023 24.2223 17.4693 24.9539 18.3953 24.9131C19.3012 24.8703 20.0239 24.0959 19.9836 23.1585C19.9614 22.2415 19.2166 21.5282 18.3107 21.5303C17.3847 21.571 16.66 22.3475 16.6621 23.2849ZM18.4033 32.3106C17.4773 32.3514 16.7124 31.6198 16.6701 30.6824C16.6701 29.745 17.3928 28.9706 18.3188 28.9278C19.2247 28.9257 19.9715 29.639 19.9916 30.554C20.0339 31.4934 19.3092 32.2678 18.4033 32.3106ZM8.36827 23.356C8.40853 24.2934 9.1755 25.0271 10.1015 24.9843C11.0074 24.9435 11.7301 24.1671 11.6878 23.2297C11.6677 22.3126 10.9228 21.5994 10.0149 21.6014C9.08894 21.6422 8.36626 22.4186 8.36827 23.356ZM10.1096 32.3206C9.18357 32.3634 8.41861 31.6298 8.37633 30.6924C8.37432 29.755 9.09902 28.9785 10.025 28.9378C10.9309 28.9357 11.6777 29.649 11.6979 30.566C11.7401 31.5035 11.0175 32.2799 10.1096 32.3206Z" fill="white"/>
</svg>
