<svg width="34" height="34" viewBox="0 0 34 34" fill="none" xmlns="http://www.w3.org/2000/svg">
<path fill-rule="evenodd" clip-rule="evenodd" d="M4.31797 0H10.0639C12.4609 0 14.3819 1.95498 14.3819 4.35367V10.1489C14.3819 12.5629 12.4609 14.5009 10.0639 14.5009H4.31797C1.93798 14.5009 0 12.5629 0 10.1489V4.35367C0 1.95498 1.93798 0 4.31797 0ZM4.31807 19.4986H10.064C12.461 19.4986 14.382 21.4383 14.382 23.8523V29.6475C14.382 32.0445 12.461 33.9995 10.064 33.9995H4.31807C1.93808 33.9995 9.91821e-05 32.0445 9.91821e-05 29.6475V23.8523C9.91821e-05 21.4383 1.93808 19.4986 4.31807 19.4986ZM29.682 0.00023937H23.9361C21.5391 0.00023937 19.6181 1.95522 19.6181 4.35391V10.1492C19.6181 12.5631 21.5391 14.5011 23.9361 14.5011H29.682C32.062 14.5011 34 12.5631 34 10.1492V4.35391C34 1.95522 32.062 0.00023937 29.682 0.00023937ZM23.9361 19.4986H29.682C32.062 19.4986 34 21.4383 34 23.8523V29.6475C34 32.0445 32.062 33.9995 29.682 33.9995H23.9361C21.5391 33.9995 19.6181 32.0445 19.6181 29.6475V23.8523C19.6181 21.4383 21.5391 19.4986 23.9361 19.4986Z" fill="white"/>
</svg>
