<svg width="38" height="38" viewBox="0 0 38 38" fill="none" xmlns="http://www.w3.org/2000/svg">
<path fill-rule="evenodd" clip-rule="evenodd" d="M10.127 0H27.8711C34.333 0 37.981 3.6651 38 10.127V27.873C38 34.333 34.333 38 27.8711 38H10.127C3.6651 38 0 34.333 0 27.873V10.127C0 3.6651 3.6651 0 10.127 0ZM19.0931 30.1338C19.912 30.1338 20.5941 29.5258 20.6701 28.7088V9.3478C20.7461 8.7588 20.463 8.1679 19.95 7.8468C19.4161 7.5238 18.7701 7.5238 18.259 7.8468C17.7441 8.1679 17.461 8.7588 17.5161 9.3478V28.7088C17.613 29.5258 18.2951 30.1338 19.0931 30.1338ZM27.835 30.1342C28.633 30.1342 29.3151 29.5262 29.412 28.7092V22.4772C29.4671 21.8673 29.184 21.2992 28.6691 20.9762C28.158 20.6532 27.512 20.6532 26.98 20.9762C26.4651 21.2992 26.182 21.8673 26.258 22.4772V28.7092C26.334 29.5262 27.0161 30.1342 27.835 30.1342ZM11.8161 28.709C11.7401 29.526 11.058 30.134 10.2391 30.134C9.42211 30.134 8.73811 29.526 8.66401 28.709V15.58C8.60701 14.9891 8.89011 14.402 9.40501 14.079C9.91611 13.756 10.564 13.756 11.077 14.079C11.5881 14.402 11.875 14.9891 11.8161 15.58V28.709Z" fill="white"/>
</svg>
