<svg width="38" height="28" viewBox="0 0 38 28" fill="none" xmlns="http://www.w3.org/2000/svg">
<path fill-rule="evenodd" clip-rule="evenodd" d="M26.1825 7.49317C26.1825 11.5517 22.947 14.806 18.912 14.806C14.8769 14.806 11.6414 11.5517 11.6414 7.49317C11.6414 3.43308 14.8769 0.181885 18.912 0.181885C22.947 0.181885 26.1825 3.43308 26.1825 7.49317ZM18.912 27.8181C12.9854 27.8181 7.92488 26.8785 7.92488 23.1202C7.92488 19.3604 12.9529 18.3866 18.912 18.3866C24.8386 18.3866 29.899 19.3261 29.899 23.086C29.899 26.8443 24.871 27.8181 18.912 27.8181ZM29.2895 7.62494C29.2895 9.69388 28.6724 11.6213 27.5898 13.2235C27.4784 13.3884 27.5774 13.6109 27.7738 13.6451C28.0445 13.6918 28.3244 13.7182 28.609 13.726C31.447 13.8006 33.9943 11.9635 34.698 9.19765C35.7404 5.08932 32.6797 1.40101 28.7822 1.40101C28.3585 1.40101 27.9533 1.44612 27.5589 1.52702C27.5047 1.53946 27.4475 1.56435 27.4166 1.61257C27.3795 1.67169 27.4073 1.75102 27.4444 1.80236C28.6152 3.45284 29.2895 5.46578 29.2895 7.62494ZM33.9897 16.6125C35.8966 16.9874 37.1509 17.7528 37.6706 18.865C38.1098 19.7782 38.1098 20.8375 37.6706 21.7491C36.8756 23.4743 34.3129 24.028 33.3169 24.1712C33.1112 24.2023 32.9457 24.0234 32.9673 23.8165C33.4762 19.0361 29.4287 16.7696 28.3817 16.2485C28.3368 16.2252 28.3275 16.1894 28.3322 16.1676C28.3353 16.1521 28.3538 16.1272 28.3878 16.1225C30.6536 16.0805 33.0895 16.3916 33.9897 16.6125ZM9.39137 13.726C9.67594 13.7182 9.95433 13.6933 10.2265 13.6451C10.4229 13.6109 10.5219 13.3884 10.4106 13.2235C9.32795 11.6213 8.71086 9.69388 8.71086 7.62494C8.71086 5.46578 9.38518 3.45284 10.556 1.80236C10.5931 1.75102 10.6194 1.67169 10.5838 1.61257C10.5529 1.56591 10.4941 1.53946 10.4415 1.52702C10.0456 1.44612 9.64037 1.40101 9.2166 1.40101C5.31915 1.40101 2.25842 5.08932 3.30238 9.19765C4.00609 11.9635 6.55335 13.8006 9.39137 13.726ZM9.66744 16.1669C9.67208 16.1903 9.6628 16.2245 9.61949 16.2494C8.5709 16.7705 4.52343 19.037 5.03227 23.8158C5.05392 24.0242 4.88998 24.2016 4.68428 24.172C3.68827 24.0289 1.12554 23.4751 0.330587 21.7499C-0.110196 20.8368 -0.110196 19.779 0.330587 18.8659C0.850246 17.7536 2.103 16.9883 4.00996 16.6118C4.91163 16.3925 7.34599 16.0814 9.61331 16.1234C9.64733 16.128 9.66435 16.1529 9.66744 16.1669Z" fill="white"/>
</svg>
