<svg width="34" height="38" viewBox="0 0 34 38" fill="none" xmlns="http://www.w3.org/2000/svg">
<path fill-rule="evenodd" clip-rule="evenodd" d="M26.3128 9.55553C26.3729 9.42166 26.401 9.27576 26.3951 9.12925H26.4444C26.2332 4.08891 22.0715 0.111084 17.0093 0.111084C11.9472 0.111084 7.78548 4.08891 7.57423 9.12925C7.54933 9.27026 7.54933 9.41452 7.57423 9.55553L7.42657 9.55553C5.00597 9.55553 2.41843 11.1535 1.66721 15.449L0.198153 27.15C-1.0038 35.7411 3.42006 37.8889 9.19611 37.8889H24.8549C30.6143 37.8889 34.9046 34.7789 33.8362 27.15L32.3838 15.449C31.499 11.2737 28.995 9.55553 26.6077 9.55553L26.3128 9.55553ZM23.5983 9.55553C23.5457 9.41942 23.5179 9.27508 23.516 9.12925C23.516 5.50731 20.5697 2.57114 16.9353 2.57114C13.3009 2.57114 10.3546 5.50731 10.3546 9.12925C10.3795 9.27026 10.3795 9.41452 10.3546 9.55553H23.5983ZM11.5166 19.2807C10.5946 19.2807 9.84718 18.5115 9.84718 17.5625C9.84718 16.6136 10.5946 15.8443 11.5166 15.8443C12.4385 15.8443 13.1859 16.6136 13.1859 17.5625C13.1859 18.5115 12.4385 19.2807 11.5166 19.2807ZM20.7816 17.5625C20.7816 18.5115 21.529 19.2807 22.451 19.2807C23.373 19.2807 24.1204 18.5115 24.1204 17.5625C24.1204 16.6136 23.373 15.8443 22.451 15.8443C21.529 15.8443 20.7816 16.6136 20.7816 17.5625Z" fill="white"/>
</svg>
