<svg width="29" height="36" viewBox="0 0 29 36" fill="none" xmlns="http://www.w3.org/2000/svg">
<path fill-rule="evenodd" clip-rule="evenodd" d="M0 15.1303C0 7.28345 6.55721 0.941162 14.4888 0.941162C22.4428 0.941162 29 7.28345 29 15.1303C29 19.0844 27.562 22.7554 25.195 25.8668C22.5838 29.2989 19.3654 32.2893 15.7428 34.6365C14.9137 35.1789 14.1654 35.2199 13.2555 34.6365C9.6122 32.2893 6.3938 29.2989 3.80497 25.8668C1.43632 22.7554 0 19.0844 0 15.1303ZM9.71369 15.5721C9.71369 18.2008 11.8587 20.2683 14.4888 20.2683C17.1206 20.2683 19.2863 18.2008 19.2863 15.5721C19.2863 12.9639 17.1206 10.7958 14.4888 10.7958C11.8587 10.7958 9.71369 12.9639 9.71369 15.5721Z" fill="white"/>
</svg>
