<svg width="30" height="30" viewBox="0 0 30 30" fill="none" xmlns="http://www.w3.org/2000/svg">
<circle cx="15" cy="15" r="15" fill="#333333"/>
<path d="M22.9453 9.55468L20.4453 7.05468C20.3268 6.93731 20.1668 6.87148 20 6.87148C19.8332 6.87148 19.6732 6.93731 19.5547 7.05468L12.0547 14.5547C11.9386 14.6737 11.8741 14.8337 11.875 15V17.5C11.875 17.6658 11.9408 17.8247 12.0581 17.9419C12.1753 18.0591 12.3342 18.125 12.5 18.125H15C15.1663 18.1259 15.3262 18.0614 15.4453 17.9453L22.9453 10.4453C23.0627 10.3268 23.1285 10.1668 23.1285 9.99999C23.1285 9.83321 23.0627 9.67317 22.9453 9.55468ZM14.7422 16.875H13.125V15.2578L18.125 10.2578L19.7422 11.875L14.7422 16.875ZM20.625 10.9922L19.0078 9.37499L20 8.3828L21.6172 9.99999L20.625 10.9922ZM22.5 14.375V21.25C22.5 21.5815 22.3683 21.8995 22.1339 22.1339C21.8995 22.3683 21.5815 22.5 21.25 22.5H8.75C8.41848 22.5 8.10054 22.3683 7.86612 22.1339C7.6317 21.8995 7.5 21.5815 7.5 21.25V8.74999C7.5 8.41847 7.6317 8.10053 7.86612 7.86611C8.10054 7.63169 8.41848 7.49999 8.75 7.49999H15.625C15.7908 7.49999 15.9497 7.56584 16.0669 7.68305C16.1842 7.80026 16.25 7.95923 16.25 8.12499C16.25 8.29075 16.1842 8.44972 16.0669 8.56693C15.9497 8.68414 15.7908 8.74999 15.625 8.74999H8.75V21.25H21.25V14.375C21.25 14.2092 21.3159 14.0503 21.4331 13.9331C21.5503 13.8158 21.7092 13.75 21.875 13.75C22.0408 13.75 22.1997 13.8158 22.3169 13.9331C22.4342 14.0503 22.5 14.2092 22.5 14.375Z" fill="#E6E6E6"/>
</svg>
