<svg width="22" height="22" viewBox="0 0 22 22" fill="none" xmlns="http://www.w3.org/2000/svg">
<path fill-rule="evenodd" clip-rule="evenodd" d="M13.3334 10.1564H16.3781C16.8397 10.1564 17.2024 9.77476 17.2024 9.31451C17.2024 8.84304 16.8397 8.47259 16.3781 8.47259H13.3334C12.8718 8.47259 12.5091 8.84304 12.5091 9.31451C12.5091 9.77476 12.8718 10.1564 13.3334 10.1564ZM19.9942 4.32024C20.6647 4.32024 21.1044 4.55598 21.544 5.07236C21.9837 5.58874 22.0606 6.32962 21.9617 7.00204L20.9175 14.366C20.7197 15.7816 19.5326 16.8244 18.1367 16.8244H6.14503C4.68317 16.8244 3.47411 15.6805 3.3532 14.1988L2.34199 1.96174L0.682285 1.66988C0.242627 1.5913 -0.0651329 1.1535 0.0118072 0.704477C0.0887472 0.24535 0.517413 -0.058864 0.968062 0.00961213L3.58952 0.412611C3.96323 0.481087 4.23801 0.794282 4.27099 1.17595L4.47983 3.69049C4.5128 4.05083 4.79858 4.32024 5.1503 4.32024H19.9942ZM5.96881 18.5986C5.04553 18.5986 4.29811 19.362 4.29811 20.3049C4.29811 21.2367 5.04553 22 5.96881 22C6.8811 22 7.62852 21.2367 7.62852 20.3049C7.62852 19.362 6.8811 18.5986 5.96881 18.5986ZM18.3343 18.5986C17.411 18.5986 16.6636 19.362 16.6636 20.3049C16.6636 21.2367 17.411 22 18.3343 22C19.2466 22 19.994 21.2367 19.994 20.3049C19.994 19.362 19.2466 18.5986 18.3343 18.5986Z" fill="#454A6D"/>
</svg>
