<svg width="15" height="12" viewBox="0 0 15 12" fill="none" xmlns="http://www.w3.org/2000/svg">
<path fill-rule="evenodd" clip-rule="evenodd" d="M14.8404 4.90429C14.7389 5.00294 14.6011 5.05931 14.456 5.05931C13.9192 5.05931 13.484 5.48209 13.484 5.99648C13.484 6.51439 13.9142 6.93506 14.4458 6.94069C14.7454 6.94351 15 7.14645 15 7.43746V9.24486C15 10.7662 13.7307 12 12.1639 12H9.79932C9.55488 12 9.35687 11.8076 9.35687 11.5702V10.0482C9.35687 9.7522 9.11751 9.51967 8.81286 9.51967C8.51547 9.51967 8.26886 9.7522 8.26886 10.0482V11.5702C8.26886 11.8076 8.07084 12 7.82713 12H2.83607C1.2766 12 0 10.7669 0 9.24486V7.43746C0 7.14645 0.254594 6.94351 0.554159 6.94069C1.08656 6.93506 1.51596 6.51439 1.51596 5.99648C1.51596 5.49618 1.09526 5.11568 0.544004 5.11568C0.398936 5.11568 0.261122 5.05931 0.159574 4.96066C0.0580271 4.86201 0 4.72813 0 4.5872V2.76218C0 1.24298 1.2795 0 2.84333 0H7.82713C8.07084 0 8.26886 0.192366 8.26886 0.42983V2.23371C8.26886 2.52261 8.51547 2.76218 8.81286 2.76218C9.11751 2.76218 9.35687 2.52261 9.35687 2.23371V0.42983C9.35687 0.192366 9.55488 0 9.79932 0H12.1639C13.7307 0 15 1.23312 15 2.75514V4.53083C15 4.67176 14.942 4.80564 14.8404 4.90429ZM8.81286 8.15267C9.11751 8.15267 9.35687 7.9131 9.35687 7.6242V4.80564C9.35687 4.51674 9.11751 4.27716 8.81286 4.27716C8.51548 4.27716 8.26886 4.51674 8.26886 4.80564V7.6242C8.26886 7.9131 8.51548 8.15267 8.81286 8.15267Z" fill="#515C6F"/>
</svg>
