<svg width="20" height="20" viewBox="0 0 20 20" fill="none" xmlns="http://www.w3.org/2000/svg">
<path d="M6.20312 12.2031L8.40625 10L6.20312 7.79688C5.99178 7.58553 5.87305 7.29889 5.87305 7C5.87305 6.70111 5.99178 6.41447 6.20312 6.20312C6.41447 5.99178 6.70111 5.87305 7 5.87305C7.29889 5.87305 7.58553 5.99178 7.79688 6.20312L10 8.40625L12.2031 6.20312C12.4145 5.99178 12.7011 5.87305 13 5.87305C13.2989 5.87305 13.5855 5.99178 13.7969 6.20312C14.0082 6.41447 14.127 6.70111 14.127 7C14.127 7.29889 14.0082 7.58553 13.7969 7.79688L11.5938 10L13.7969 12.2031C13.9018 12.3076 13.985 12.4318 14.0418 12.5686C14.0985 12.7053 14.1278 12.8519 14.1278 13C14.1278 13.1481 14.0985 13.2947 14.0418 13.4314C13.985 13.5682 13.9018 13.6924 13.7969 13.7969C13.5846 14.0064 13.2983 14.1239 13 14.1239C12.7017 14.1239 12.4154 14.0064 12.2031 13.7969L10 11.5938L7.79688 13.7969C7.58458 14.0064 7.29829 14.1239 7 14.1239C6.70171 14.1239 6.41542 14.0064 6.20312 13.7969C6.09825 13.6924 6.01503 13.5682 5.95825 13.4314C5.90147 13.2947 5.87224 13.1481 5.87224 13C5.87224 12.8519 5.90147 12.7053 5.95825 12.5686C6.01503 12.4318 6.09825 12.3076 6.20312 12.2031ZM19.375 2.5V17.5C19.3725 17.9965 19.1742 18.472 18.8231 18.8231C18.472 19.1742 17.9965 19.3725 17.5 19.375H2.5C2.00348 19.3725 1.528 19.1742 1.1769 18.8231C0.825799 18.472 0.627464 17.9965 0.625 17.5V2.5C0.627464 2.00348 0.825799 1.528 1.1769 1.1769C1.528 0.825799 2.00348 0.627464 2.5 0.625H17.5C17.9965 0.627464 18.472 0.825799 18.8231 1.1769C19.1742 1.528 19.3725 2.00348 19.375 2.5ZM17.125 2.875H2.875V17.125H17.125V2.875Z" fill="#252525"/>
</svg>
