<svg width="15" height="15" viewBox="0 0 15 15" fill="none" xmlns="http://www.w3.org/2000/svg">
<path fill-rule="evenodd" clip-rule="evenodd" d="M1.90503 0H4.44007C5.49758 0 6.3451 0.862513 6.3451 1.92078V4.47757C6.3451 5.54258 5.49758 6.3976 4.44007 6.3976H1.90503C0.855013 6.3976 0 5.54258 0 4.47757V1.92078C0 0.862513 0.855013 0 1.90503 0ZM1.90503 8.60242H4.44007C5.49758 8.60242 6.3451 9.45819 6.3451 10.5232V13.08C6.3451 14.1375 5.49758 15 4.44007 15H1.90503C0.855013 15 0 14.1375 0 13.08V10.5232C0 9.45819 0.855013 8.60242 1.90503 8.60242ZM13.0952 0H10.5602C9.50267 0 8.65516 0.862513 8.65516 1.92078V4.47757C8.65516 5.54258 9.50267 6.3976 10.5602 6.3976H13.0952C14.1452 6.3976 15.0003 5.54258 15.0003 4.47757V1.92078C15.0003 0.862513 14.1452 0 13.0952 0ZM10.5602 8.60242H13.0952C14.1452 8.60242 15.0003 9.45819 15.0003 10.5232V13.08C15.0003 14.1375 14.1452 15 13.0952 15H10.5602C9.50267 15 8.65516 14.1375 8.65516 13.08V10.5232C8.65516 9.45819 9.50267 8.60242 10.5602 8.60242Z" fill="#37A169"/>
</svg>
