<svg width="21" height="21" viewBox="0 0 21 21" fill="none" xmlns="http://www.w3.org/2000/svg">
<path d="M19.7969 4.20313L16.7969 1.20313C16.6924 1.09825 16.5682 1.01503 16.4314 0.958248C16.2947 0.901467 16.1481 0.872238 16 0.872238C15.8519 0.872238 15.7053 0.901467 15.5686 0.958248C15.4318 1.01503 15.3076 1.09825 15.2031 1.20313L6.20312 10.2031C6.09832 10.3076 6.01534 10.4318 5.95901 10.5686C5.90268 10.7054 5.87412 10.8521 5.875 11V14C5.875 14.2984 5.99353 14.5845 6.2045 14.7955C6.41548 15.0065 6.70163 15.125 7 15.125H10C10.298 15.1227 10.5836 15.0051 10.7969 14.7969L19.7969 5.79688C19.9018 5.69236 19.985 5.56817 20.0418 5.43142C20.0985 5.29468 20.1278 5.14807 20.1278 5C20.1278 4.85193 20.0985 4.70533 20.0418 4.56858C19.985 4.43183 19.9018 4.30764 19.7969 4.20313ZM16 3.59375L17.4062 5L16.375 6.03125L14.9688 4.625L16 3.59375ZM9.53125 12.875H8.125V11.4688L13.375 6.21875L14.7812 7.625L9.53125 12.875ZM19.375 11.0563V18.5C19.3725 18.9965 19.1742 19.472 18.8231 19.8231C18.472 20.1742 17.9965 20.3725 17.5 20.375H2.5C2.00348 20.3725 1.528 20.1742 1.1769 19.8231C0.825799 19.472 0.627464 18.9965 0.625 18.5V3.5C0.627464 3.00348 0.825799 2.528 1.1769 2.1769C1.528 1.8258 2.00348 1.62746 2.5 1.625H9.94375C10.2421 1.625 10.5283 1.74353 10.7392 1.95451C10.9502 2.16548 11.0687 2.45163 11.0687 2.75C11.0687 3.04837 10.9502 3.33452 10.7392 3.5455C10.5283 3.75647 10.2421 3.875 9.94375 3.875H2.875V18.125H17.125V11.0563C17.125 10.7579 17.2435 10.4717 17.4545 10.2608C17.6655 10.0498 17.9516 9.93125 18.25 9.93125C18.5484 9.93125 18.8345 10.0498 19.0455 10.2608C19.2565 10.4717 19.375 10.7579 19.375 11.0563Z" fill="#508CD2"/>
</svg>
