<svg width="20" height="16" viewBox="0 0 20 16" fill="none" xmlns="http://www.w3.org/2000/svg">
<path d="M4.21094 0.703123C4.09803 0.584991 3.94333 0.515784 3.78001 0.510328C3.61668 0.504872 3.45772 0.563602 3.33717 0.673934C3.21662 0.784266 3.14408 0.937424 3.13509 1.10059C3.1261 1.26376 3.18137 1.42396 3.28907 1.54687L4.78907 3.19531C1.95313 4.9375 0.73438 7.625 0.679693 7.75C0.645082 7.83017 0.627228 7.91658 0.627228 8.0039C0.627228 8.09123 0.645082 8.17764 0.679693 8.25781C0.70313 8.3125 1.36719 9.78125 2.83594 11.2578C4.79688 13.2109 7.27344 14.25 10 14.25C11.4008 14.2556 12.7872 13.9682 14.0703 13.4062L15.7891 15.2969C15.8476 15.3609 15.9188 15.412 15.9982 15.4469C16.0775 15.4819 16.1633 15.5 16.25 15.5C16.4059 15.4985 16.5559 15.4401 16.6719 15.3359C16.7333 15.2811 16.7832 15.2145 16.8185 15.1401C16.8538 15.0657 16.8738 14.985 16.8775 14.9028C16.8811 14.8205 16.8683 14.7383 16.8397 14.6611C16.8111 14.5839 16.7673 14.5132 16.7109 14.4531L4.21094 0.703123ZM7.90626 6.63281L11.1641 10.2109C10.8057 10.4015 10.4059 10.5008 10 10.5C9.54944 10.5001 9.1072 10.3785 8.72009 10.1479C8.33297 9.91739 8.01535 9.5865 7.80083 9.19028C7.58631 8.79405 7.48285 8.34722 7.50141 7.89703C7.51997 7.44684 7.65985 7.01003 7.90626 6.63281ZM10 13C7.59376 13 5.49219 12.125 3.75782 10.3984C3.03928 9.69407 2.4309 8.88553 1.95313 8C2.32032 7.3125 3.50001 5.38281 5.64844 4.14062L7.05469 5.6875C6.51264 6.3846 6.23398 7.25062 6.2678 8.13302C6.30161 9.01542 6.64574 9.85758 7.23955 10.5111C7.83337 11.1647 8.63877 11.5878 9.5139 11.7058C10.389 11.8238 11.2777 11.6292 12.0234 11.1562L13.1719 12.4219C12.1595 12.8092 11.084 13.0052 10 13ZM19.3203 8.25781C19.2891 8.32812 18.5 10.0781 16.7109 11.6797C16.5962 11.7799 16.4492 11.8354 16.2969 11.8359C16.2092 11.837 16.1225 11.8186 16.0428 11.7821C15.9631 11.7457 15.8924 11.692 15.8359 11.625C15.781 11.564 15.7387 11.4927 15.7113 11.4153C15.684 11.3379 15.6721 11.2559 15.6765 11.1739C15.6808 11.0919 15.7013 11.0116 15.7367 10.9375C15.7721 10.8634 15.8218 10.7971 15.8828 10.7422C16.756 9.9589 17.488 9.03132 18.0469 8C17.5678 7.11298 16.9596 6.30204 16.2422 5.59375C14.5078 3.875 12.4063 3 10 3C9.49214 2.99795 8.98505 3.03977 8.48438 3.125C8.32097 3.14996 8.15427 3.10999 8.01995 3.01363C7.88563 2.91727 7.79435 2.77217 7.76563 2.60937C7.75223 2.52832 7.75494 2.44541 7.7736 2.3654C7.79227 2.28539 7.82653 2.20985 7.87442 2.14309C7.92231 2.07633 7.98289 2.01967 8.0527 1.97635C8.12251 1.93303 8.20018 1.9039 8.28126 1.89062C8.84926 1.79599 9.42417 1.74895 10 1.75C12.7266 1.75 15.2031 2.78906 17.1641 4.74219C18.6328 6.21875 19.2969 7.6875 19.3203 7.75C19.3549 7.83017 19.3728 7.91658 19.3728 8.0039C19.3728 8.09123 19.3549 8.17764 19.3203 8.25781ZM10.4688 5.54687C10.3877 5.53148 10.3105 5.50028 10.2415 5.45505C10.1725 5.40981 10.1131 5.35143 10.0667 5.28324C9.97289 5.14552 9.93767 4.97619 9.96875 4.8125C9.99984 4.64881 10.0947 4.50417 10.2324 4.4104C10.3701 4.31664 10.5394 4.28142 10.7031 4.3125C11.5001 4.46836 12.2255 4.87715 12.7716 5.47814C13.3177 6.07913 13.6553 6.84025 13.7344 7.64844C13.7496 7.8131 13.699 7.97708 13.5935 8.10447C13.4881 8.23187 13.3365 8.31229 13.1719 8.32812H13.1094C12.9547 8.32873 12.8055 8.27127 12.6912 8.1671C12.5769 8.06293 12.5059 7.91966 12.4922 7.76562C12.4383 7.2274 12.2123 6.72089 11.8478 6.32122C11.4833 5.92155 10.9997 5.65001 10.4688 5.54687Z" fill="#333333"/>
</svg>
