<svg width="20" height="10" viewBox="0 0 20 10" fill="none" xmlns="http://www.w3.org/2000/svg">
<path d="M15.9375 5C15.9375 5.24864 15.8387 5.4871 15.6629 5.66291C15.4871 5.83873 15.2486 5.9375 15 5.9375H5C4.75136 5.9375 4.5129 5.83873 4.33709 5.66291C4.16127 5.4871 4.0625 5.24864 4.0625 5C4.0625 4.75136 4.16127 4.5129 4.33709 4.33709C4.5129 4.16127 4.75136 4.0625 5 4.0625H15C15.2486 4.0625 15.4871 4.16127 15.6629 4.33709C15.8387 4.5129 15.9375 4.75136 15.9375 5ZM18.125 0.3125H1.875C1.62636 0.3125 1.3879 0.411272 1.21209 0.587087C1.03627 0.762903 0.9375 1.00136 0.9375 1.25C0.9375 1.49864 1.03627 1.7371 1.21209 1.91291C1.3879 2.08873 1.62636 2.1875 1.875 2.1875H18.125C18.3736 2.1875 18.6121 2.08873 18.7879 1.91291C18.9637 1.7371 19.0625 1.49864 19.0625 1.25C19.0625 1.00136 18.9637 0.762903 18.7879 0.587087C18.6121 0.411272 18.3736 0.3125 18.125 0.3125ZM11.875 7.8125H8.125C7.87636 7.8125 7.6379 7.91127 7.46209 8.08709C7.28627 8.2629 7.1875 8.50136 7.1875 8.75C7.1875 8.99864 7.28627 9.2371 7.46209 9.41291C7.6379 9.58873 7.87636 9.6875 8.125 9.6875H11.875C12.1236 9.6875 12.3621 9.58873 12.5379 9.41291C12.7137 9.2371 12.8125 8.99864 12.8125 8.75C12.8125 8.50136 12.7137 8.2629 12.5379 8.08709C12.3621 7.91127 12.1236 7.8125 11.875 7.8125Z" fill="#508CD2"/>
</svg>
