<svg width="22" height="18" viewBox="0 0 22 18" fill="none" xmlns="http://www.w3.org/2000/svg">
<path d="M20.9813 13.0031C20.9126 12.9237 20.8277 12.86 20.7323 12.8163C20.6368 12.7726 20.5331 12.75 20.4281 12.75H19.5V3C19.4975 2.20511 19.1807 1.44349 18.6186 0.881411C18.0565 0.319337 17.2949 0.00247246 16.5 0H3.75002C2.95513 0.00247246 2.1935 0.319337 1.63143 0.881411C1.06935 1.44349 0.752488 2.20511 0.750015 3C0.747632 3.73832 1.0219 4.45075 1.51877 4.99688C1.58315 5.07051 1.66149 5.13066 1.74925 5.17385C1.83702 5.21704 1.93246 5.24242 2.03009 5.24852C2.12771 5.25462 2.22558 5.24132 2.31804 5.20939C2.41049 5.17747 2.49571 5.12754 2.56877 5.0625C2.64269 4.99729 2.70304 4.91814 2.74636 4.82959C2.78967 4.74103 2.8151 4.64481 2.8212 4.54642C2.82729 4.44803 2.81393 4.3494 2.78188 4.25618C2.74982 4.16295 2.69971 4.07696 2.63439 4.00312C2.47177 3.82219 2.3556 3.60441 2.29589 3.36857C2.23618 3.13273 2.23474 2.88591 2.29167 2.64939C2.34861 2.41286 2.46222 2.19374 2.62271 2.01091C2.7832 1.82807 2.98575 1.68702 3.21289 1.5999C3.44004 1.51279 3.68497 1.48223 3.92655 1.51086C4.16814 1.5395 4.39914 1.62646 4.59963 1.76426C4.80013 1.90205 4.96409 2.08654 5.0774 2.30183C5.1907 2.51711 5.24994 2.75672 5.25001 3V15C5.25249 15.7949 5.56935 16.5565 6.13143 17.1186C6.6935 17.6807 7.45513 17.9975 8.25002 18H18.75C19.5449 17.9975 20.3065 17.6807 20.8686 17.1186C21.4307 16.5565 21.7475 15.7949 21.75 15C21.7524 14.2617 21.4781 13.5492 20.9813 13.0031ZM9.75002 6H15.75C15.9489 6 16.1397 6.07902 16.2803 6.21967C16.421 6.36032 16.5 6.55109 16.5 6.75C16.5 6.94891 16.421 7.13968 16.2803 7.28033C16.1397 7.42098 15.9489 7.5 15.75 7.5H9.75002C9.5511 7.5 9.36034 7.42098 9.21969 7.28033C9.07903 7.13968 9.00002 6.94891 9.00002 6.75C9.00002 6.55109 9.07903 6.36032 9.21969 6.21967C9.36034 6.07902 9.5511 6 9.75002 6ZM9.00002 9.75C9.00002 9.55109 9.07903 9.36032 9.21969 9.21967C9.36034 9.07902 9.5511 9 9.75002 9H15.75C15.9489 9 16.1397 9.07902 16.2803 9.21967C16.421 9.36032 16.5 9.55109 16.5 9.75C16.5 9.94891 16.421 10.1397 16.2803 10.2803C16.1397 10.421 15.9489 10.5 15.75 10.5H9.75002C9.5511 10.5 9.36034 10.421 9.21969 10.2803C9.07903 10.1397 9.00002 9.94891 9.00002 9.75ZM18.75 16.5H10.8469C11.1098 16.0437 11.2488 15.5266 11.25 15C11.2518 14.747 11.2202 14.4948 11.1563 14.25H20.0531C20.182 14.4788 20.2489 14.7372 20.2473 14.9998C20.2458 15.2623 20.1757 15.5199 20.0441 15.7471C19.9125 15.9743 19.7239 16.1633 19.497 16.2953C19.27 16.4274 19.0126 16.4979 18.75 16.5Z" fill="#508CD2"/>
</svg>
