<svg width="24" height="24" viewBox="0 0 24 24" fill="none" xmlns="http://www.w3.org/2000/svg">
<path d="M8.10007 13.34L3.91007 9.16C3.16092 8.40869 2.74023 7.39099 2.74023 6.33C2.74023 5.26901 3.16092 4.25131 3.91007 3.5L10.9301 10.5L8.10007 13.34ZM14.8801 11.53L13.4101 13L20.2901 19.88L18.8801 21.29L12.0001 14.41L5.12007 21.29L3.71007 19.88L13.4701 10.12C12.7601 8.59 13.2601 6.44 14.8501 4.85C16.7601 2.93 19.5001 2.57 20.9601 4.03C22.4301 5.5 22.0701 8.24 20.1501 10.15C18.5601 11.74 16.4101 12.24 14.8801 11.53Z" fill="#666666"/>
</svg>
