<svg width="20" height="19" viewBox="0 0 20 19" fill="none" xmlns="http://www.w3.org/2000/svg">
<path d="M6.10007 10.34L1.91007 6.16C1.16092 5.40869 0.740234 4.39099 0.740234 3.33C0.740234 2.26901 1.16092 1.25131 1.91007 0.499998L8.93007 7.5L6.10007 10.34ZM12.8801 8.53L11.4101 10L18.2901 16.88L16.8801 18.29L10.0001 11.41L3.12007 18.29L1.71007 16.88L11.4701 7.12C10.7601 5.59 11.2601 3.44 12.8501 1.85C14.7601 -0.0700023 17.5001 -0.430002 18.9601 1.03C20.4301 2.5 20.0701 5.24 18.1501 7.15C16.5601 8.74 14.4101 9.24 12.8801 8.53Z" fill="#F57C3D"/>
</svg>
