<svg width="35" height="27" viewBox="0 0 35 27" fill="none" xmlns="http://www.w3.org/2000/svg">
<path d="M31.8182 0.794118C30.0523 0.238235 28.1114 0 26.25 0C23.1477 0 19.8068 0.635294 17.5 2.38235C15.1932 0.635294 11.8523 0 8.75 0C5.64773 0 2.30682 0.635294 0 2.38235V25.65C0 26.0471 0.397727 26.4441 0.795455 26.4441C0.954545 26.4441 1.03409 26.3647 1.19318 26.3647C3.34091 25.3324 6.44318 24.6176 8.75 24.6176C11.8523 24.6176 15.1932 25.2529 17.5 27C19.6477 25.65 23.5455 24.6176 26.25 24.6176C28.875 24.6176 31.5795 25.0941 33.8068 26.2853C33.9659 26.3647 34.0455 26.3647 34.2045 26.3647C34.6023 26.3647 35 25.9676 35 25.5706V2.38235C34.0455 1.66765 33.0114 1.19118 31.8182 0.794118ZM31.8182 22.2353C30.0682 21.6794 28.1591 21.4412 26.25 21.4412C23.5455 21.4412 19.6477 22.4735 17.5 23.8235V5.55882C19.6477 4.20882 23.5455 3.17647 26.25 3.17647C28.1591 3.17647 30.0682 3.41471 31.8182 3.97059V22.2353Z" fill="#F57C3D"/>
</svg>
