<svg width="38" height="24" viewBox="0 0 38 24" fill="none" xmlns="http://www.w3.org/2000/svg">
<path d="M25.3333 12C25.3333 13.3185 24.9619 14.6075 24.266 15.7038C23.5701 16.8001 22.5809 17.6546 21.4237 18.1592C20.2664 18.6638 18.993 18.7958 17.7644 18.5386C16.5359 18.2813 15.4074 17.6464 14.5217 16.714C13.6359 15.7817 13.0327 14.5938 12.7884 13.3006C12.544 12.0074 12.6694 10.667 13.1488 9.44878C13.6281 8.2306 14.4399 7.18941 15.4814 6.45687C16.5229 5.72433 17.7474 5.33333 19 5.33333C20.6797 5.33333 22.2906 6.03571 23.4783 7.28596C24.6661 8.5362 25.3333 10.2319 25.3333 12ZM38 1.33333V22.6667C38 23.0203 37.8665 23.3594 37.629 23.6095C37.3915 23.8595 37.0693 24 36.7333 24H1.26667C0.930726 24 0.608544 23.8595 0.370998 23.6095C0.133452 23.3594 0 23.0203 0 22.6667V1.33333C0 0.979711 0.133452 0.640573 0.370998 0.390525C0.608544 0.140476 0.930726 0 1.26667 0H36.7333C37.0693 0 37.3915 0.140476 37.629 0.390525C37.8665 0.640573 38 0.979711 38 1.33333ZM35.4667 9.05833C34.0284 8.61068 32.7193 7.79135 31.6588 6.67497C30.5982 5.5586 29.8199 4.18066 29.3946 2.66667H8.60542C8.18014 4.18066 7.40178 5.5586 6.34122 6.67497C5.28067 7.79135 3.97163 8.61068 2.53333 9.05833V14.9417C3.97163 15.3893 5.28067 16.2087 6.34122 17.325C7.40178 18.4414 8.18014 19.8193 8.60542 21.3333H29.3946C29.8199 19.8193 30.5982 18.4414 31.6588 17.325C32.7193 16.2087 34.0284 15.3893 35.4667 14.9417V9.05833Z" fill="#F57C3D"/>
</svg>
