<svg width="15" height="15" viewBox="0 0 15 15" fill="none" xmlns="http://www.w3.org/2000/svg">
<path fill-rule="evenodd" clip-rule="evenodd" d="M9.09093 6.92487H11.1668C11.4816 6.92487 11.7289 6.66464 11.7289 6.35083C11.7289 6.02937 11.4816 5.77679 11.1668 5.77679H9.09093C8.77618 5.77679 8.52887 6.02937 8.52887 6.35083C8.52887 6.66464 8.77618 6.92487 9.09093 6.92487ZM13.6324 2.94562C14.0896 2.94562 14.3893 3.10635 14.6891 3.45843C14.9889 3.8105 15.0413 4.31565 14.9739 4.77412L14.2619 9.79502C14.127 10.7602 13.3177 11.4712 12.3659 11.4712H4.18979C3.19307 11.4712 2.36871 10.6913 2.28627 9.68098L1.59681 1.33755L0.465194 1.13855C0.165428 1.08498 -0.0444088 0.786478 0.00805033 0.480325C0.0605094 0.167284 0.352782 -0.0401346 0.660042 0.00655373L2.4474 0.281326C2.7022 0.328014 2.88955 0.541556 2.91204 0.801785L3.05443 2.51624C3.07691 2.76193 3.27176 2.94562 3.51157 2.94562H13.6324ZM4.06972 12.681C3.44021 12.681 2.9306 13.2014 2.9306 13.8443C2.9306 14.4796 3.44021 15.0001 4.06972 15.0001C4.69173 15.0001 5.20133 14.4796 5.20133 13.8443C5.20133 13.2014 4.69173 12.681 4.06972 12.681ZM12.5006 12.681C11.8711 12.681 11.3615 13.2014 11.3615 13.8443C11.3615 14.4796 11.8711 15.0001 12.5006 15.0001C13.1226 15.0001 13.6322 14.4796 13.6322 13.8443C13.6322 13.2014 13.1226 12.681 12.5006 12.681Z" fill="#515C6F"/>
</svg>
