<svg width="34" height="28" viewBox="0 0 34 28" fill="none" xmlns="http://www.w3.org/2000/svg">
<path d="M30.75 0.25H3.25002C2.58698 0.25 1.9511 0.513392 1.48225 0.982233C1.01341 1.45107 0.750022 2.08696 0.750022 2.75V26.5C0.748749 26.7133 0.802777 26.9233 0.906836 27.1095C1.01089 27.2957 1.16143 27.4518 1.34377 27.5625C1.52464 27.6762 1.73164 27.7416 1.945 27.7526C2.15836 27.7635 2.37097 27.7196 2.56252 27.625L7.00002 25.3906L11.4375 27.625C11.613 27.7095 11.8053 27.7533 12 27.7533C12.1948 27.7533 12.387 27.7095 12.5625 27.625L17 25.3906L21.4375 27.625C21.6136 27.7073 21.8056 27.75 22 27.75C22.1944 27.75 22.3864 27.7073 22.5625 27.625L27 25.3906L31.4375 27.625C31.6291 27.7196 31.8417 27.7635 32.055 27.7526C32.2684 27.7416 32.4754 27.6762 32.6563 27.5625C32.8386 27.4518 32.9892 27.2957 33.0932 27.1095C33.1973 26.9233 33.2513 26.7133 33.25 26.5V2.75C33.25 2.08696 32.9866 1.45107 32.5178 0.982233C32.049 0.513392 31.4131 0.25 30.75 0.25ZM25.125 16.5H8.87502C8.5435 16.5 8.22556 16.3683 7.99114 16.1339C7.75672 15.8995 7.62502 15.5815 7.62502 15.25C7.62502 14.9185 7.75672 14.6005 7.99114 14.3661C8.22556 14.1317 8.5435 14 8.87502 14H25.125C25.4565 14 25.7745 14.1317 26.0089 14.3661C26.2433 14.6005 26.375 14.9185 26.375 15.25C26.375 15.5815 26.2433 15.8995 26.0089 16.1339C25.7745 16.3683 25.4565 16.5 25.125 16.5ZM25.125 11.5H8.87502C8.5435 11.5 8.22556 11.3683 7.99114 11.1339C7.75672 10.8995 7.62502 10.5815 7.62502 10.25C7.62502 9.91848 7.75672 9.60054 7.99114 9.36612C8.22556 9.1317 8.5435 9 8.87502 9H25.125C25.4565 9 25.7745 9.1317 26.0089 9.36612C26.2433 9.60054 26.375 9.91848 26.375 10.25C26.375 10.5815 26.2433 10.8995 26.0089 11.1339C25.7745 11.3683 25.4565 11.5 25.125 11.5Z" fill="#F5993D"/>
</svg>
