<svg width="13" height="15" viewBox="0 0 13 15" fill="none" xmlns="http://www.w3.org/2000/svg">
<path fill-rule="evenodd" clip-rule="evenodd" d="M0.125 6.23832C0.125 2.78842 3.00791 0 6.49508 0C9.99209 0 12.875 2.78842 12.875 6.23832C12.875 7.97677 12.2428 9.59072 11.2021 10.9587C10.0541 12.4676 8.63912 13.7823 7.04641 14.8143C6.68188 15.0528 6.35291 15.0708 5.95284 14.8143C4.35105 13.7823 2.93607 12.4676 1.79787 10.9587C0.756488 9.59072 0.125 7.97677 0.125 6.23832ZM4.39575 6.43258C4.39575 7.5883 5.33882 8.49727 6.49516 8.49727C7.65226 8.49727 8.60441 7.5883 8.60441 6.43258C8.60441 5.28586 7.65226 4.33264 6.49516 4.33264C5.33882 4.33264 4.39575 5.28586 4.39575 6.43258Z" fill="#515C6F"/>
</svg>
