<svg width="20" height="18" viewBox="0 0 20 18" fill="none" xmlns="http://www.w3.org/2000/svg">
<path d="M18.25 0.75H1.75001C1.35219 0.75 0.970658 0.908035 0.689353 1.18934C0.408048 1.47064 0.250013 1.85218 0.250013 2.25V16.5C0.24925 16.628 0.281666 16.754 0.344101 16.8657C0.406537 16.9774 0.49686 17.0711 0.606263 17.1375C0.714787 17.2057 0.838984 17.245 0.967001 17.2516C1.09502 17.2581 1.22258 17.2318 1.33751 17.175L4.00001 15.8344L6.66251 17.175C6.7678 17.2257 6.88316 17.252 7.00001 17.252C7.11687 17.252 7.23222 17.2257 7.33751 17.175L10 15.8344L12.6625 17.175C12.7682 17.2244 12.8834 17.25 13 17.25C13.1166 17.25 13.2319 17.2244 13.3375 17.175L16 15.8344L18.6625 17.175C18.7774 17.2318 18.905 17.2581 19.033 17.2516C19.161 17.245 19.2852 17.2057 19.3938 17.1375C19.5032 17.0711 19.5935 16.9774 19.6559 16.8657C19.7184 16.754 19.7508 16.628 19.75 16.5V2.25C19.75 1.85218 19.592 1.47064 19.3107 1.18934C19.0294 0.908035 18.6478 0.75 18.25 0.75ZM14.875 10.5H5.12501C4.9261 10.5 4.73534 10.421 4.59468 10.2803C4.45403 10.1397 4.37501 9.94891 4.37501 9.75C4.37501 9.55109 4.45403 9.36032 4.59468 9.21967C4.73534 9.07902 4.9261 9 5.12501 9H14.875C15.0739 9 15.2647 9.07902 15.4053 9.21967C15.546 9.36032 15.625 9.55109 15.625 9.75C15.625 9.94891 15.546 10.1397 15.4053 10.2803C15.2647 10.421 15.0739 10.5 14.875 10.5ZM14.875 7.5H5.12501C4.9261 7.5 4.73534 7.42098 4.59468 7.28033C4.45403 7.13968 4.37501 6.94891 4.37501 6.75C4.37501 6.55109 4.45403 6.36032 4.59468 6.21967C4.73534 6.07902 4.9261 6 5.12501 6H14.875C15.0739 6 15.2647 6.07902 15.4053 6.21967C15.546 6.36032 15.625 6.55109 15.625 6.75C15.625 6.94891 15.546 7.13968 15.4053 7.28033C15.2647 7.42098 15.0739 7.5 14.875 7.5Z" fill="#666666"/>
</svg>
