<svg width="20" height="22" viewBox="0 0 20 22" fill="none" xmlns="http://www.w3.org/2000/svg">
<path d="M19.8906 10V17.5C19.8881 18.4938 19.4923 19.4462 18.7895 20.1489C18.0868 20.8517 17.1344 21.2475 16.1406 21.25H10.75C10.5511 21.25 10.3603 21.171 10.2197 21.0303C10.079 20.8897 10 20.6989 10 20.5C10 20.3011 10.079 20.1103 10.2197 19.9697C10.3603 19.829 10.5511 19.75 10.75 19.75H16.1406C16.7366 19.7475 17.3075 19.5097 17.7289 19.0883C18.1503 18.6668 18.3882 18.096 18.3906 17.5V17.3688C18.1501 17.4555 17.8963 17.4999 17.6406 17.5H16.1406C15.5439 17.5 14.9716 17.263 14.5496 16.841C14.1277 16.419 13.8906 15.8467 13.8906 15.25V11.5C13.8906 10.9033 14.1277 10.331 14.5496 9.90902C14.9716 9.48706 15.5439 9.25001 16.1406 9.25001H18.3531C18.1651 7.18959 17.2097 5.27503 15.6765 3.88588C14.1432 2.49672 12.1439 1.73439 10.075 1.75001H10.0656C7.99548 1.73004 5.99383 2.49088 4.45962 3.88087C2.92542 5.27087 1.97132 7.18795 1.7875 9.25001H4C4.59598 9.25248 5.16684 9.49032 5.58826 9.91174C6.00969 10.3332 6.24753 10.904 6.25 11.5V15.25C6.24753 15.846 6.00969 16.4168 5.58826 16.8383C5.16684 17.2597 4.59598 17.4975 4 17.5H2.5C1.90402 17.4975 1.33316 17.2597 0.911736 16.8383C0.490313 16.4168 0.252468 15.846 0.25 15.25V10C0.249971 8.71408 0.50432 7.44085 0.998402 6.25362C1.49248 5.0664 2.21654 3.98864 3.12887 3.08241C4.04121 2.17618 5.1238 1.45937 6.31431 0.973261C7.50481 0.487155 8.77973 0.241352 10.0656 0.250007H10.1406C12.7257 0.252489 15.2042 1.28052 17.0322 3.10846C18.8601 4.9364 19.8881 7.41491 19.8906 10Z" fill="#666666"/>
</svg>
