<svg width="34" height="34" viewBox="0 0 34 34" fill="none" xmlns="http://www.w3.org/2000/svg">
<path d="M23.875 15.75C23.875 17.1097 23.4718 18.439 22.7164 19.5695C21.9609 20.7001 20.8872 21.5813 19.631 22.1017C18.3747 22.622 16.9924 22.7582 15.6588 22.4929C14.3251 22.2276 13.1001 21.5728 12.1386 20.6114C11.1772 19.6499 10.5224 18.4249 10.2571 17.0912C9.99184 15.7576 10.128 14.3753 10.6483 13.1191C11.1687 11.8628 12.0499 10.7891 13.1805 10.0336C14.311 9.27821 15.6403 8.875 17 8.875C18.8234 8.875 20.5721 9.59933 21.8614 10.8886C23.1507 12.178 23.875 13.9266 23.875 15.75ZM33.25 17C33.25 20.2139 32.297 23.3557 30.5114 26.028C28.7258 28.7003 26.1879 30.7831 23.2186 32.013C20.2493 33.243 16.982 33.5648 13.8298 32.9378C10.6776 32.3107 7.78213 30.7631 5.50952 28.4905C3.23692 26.2179 1.68926 23.3224 1.06225 20.1702C0.435237 17.018 0.757041 13.7507 1.98696 10.7814C3.21689 7.81209 5.29969 5.27419 7.97199 3.48862C10.6443 1.70305 13.7861 0.75 17 0.75C21.3072 0.758259 25.4357 2.47296 28.4814 5.51864C31.527 8.56432 33.2417 12.6928 33.25 17ZM30.75 17C30.7508 14.773 30.2107 12.5792 29.1762 10.6071C28.1416 8.63505 26.6435 6.94378 24.8107 5.67875C22.9779 4.41372 20.8653 3.61278 18.6545 3.34482C16.4437 3.07686 14.2009 3.34988 12.119 4.14042C10.037 4.93096 8.17828 6.21536 6.70252 7.88315C5.22677 9.55095 4.17819 11.5522 3.64695 13.7149C3.11572 15.8776 3.11773 18.137 3.65281 20.2987C4.18789 22.4604 5.24004 24.4598 6.71876 26.125C7.7306 24.6736 9.03449 23.4495 10.5469 22.5312C12.2834 24.1949 14.5952 25.1236 17 25.1236C19.4048 25.1236 21.7167 24.1949 23.4531 22.5312C24.9655 23.4495 26.2694 24.6736 27.2813 26.125C29.5197 23.6131 30.7546 20.3646 30.75 17Z" fill="#508CD2"/>
</svg>
