<svg width="16" height="17" viewBox="0 0 16 17" fill="none" xmlns="http://www.w3.org/2000/svg">
<path d="M14.25 1.5H12.375V0.875C12.375 0.70924 12.3092 0.550268 12.1919 0.433058C12.0747 0.315848 11.9158 0.25 11.75 0.25C11.5842 0.25 11.4253 0.315848 11.3081 0.433058C11.1908 0.550268 11.125 0.70924 11.125 0.875V1.5H4.875V0.875C4.875 0.70924 4.80915 0.550268 4.69194 0.433058C4.57473 0.315848 4.41576 0.25 4.25 0.25C4.08424 0.25 3.92527 0.315848 3.80806 0.433058C3.69085 0.550268 3.625 0.70924 3.625 0.875V1.5H1.75C1.41848 1.5 1.10054 1.6317 0.866116 1.86612C0.631696 2.10054 0.5 2.41848 0.5 2.75V15.25C0.5 15.5815 0.631696 15.8995 0.866116 16.1339C1.10054 16.3683 1.41848 16.5 1.75 16.5H14.25C14.5815 16.5 14.8995 16.3683 15.1339 16.1339C15.3683 15.8995 15.5 15.5815 15.5 15.25V2.75C15.5 2.41848 15.3683 2.10054 15.1339 1.86612C14.8995 1.6317 14.5815 1.5 14.25 1.5ZM6.125 13.6875C5.62759 13.687 5.15041 13.4905 4.79688 13.1406C4.67999 13.0235 4.61435 12.8647 4.61435 12.6992C4.61435 12.5337 4.67999 12.375 4.79688 12.2578C4.85436 12.199 4.92302 12.1523 4.99882 12.1203C5.07462 12.0884 5.15604 12.072 5.23828 12.072C5.32053 12.072 5.40194 12.0884 5.47774 12.1203C5.55354 12.1523 5.6222 12.199 5.67969 12.2578C5.79966 12.3725 5.95904 12.4368 6.125 12.4375C6.29076 12.4375 6.44973 12.3717 6.56694 12.2544C6.68415 12.1372 6.75 11.9783 6.75 11.8125C6.75 11.6467 6.68415 11.4878 6.56694 11.3706C6.44973 11.2533 6.29076 11.1875 6.125 11.1875H5.92969L5.89844 11.1719H5.875L5.83594 11.1562H5.82812L5.78125 11.125H5.76562L5.73438 11.1016L5.70312 11.0781L5.6875 11.0625L5.66406 11.0391C5.62311 10.992 5.58893 10.9394 5.5625 10.8828C5.54005 10.8413 5.52423 10.7964 5.51562 10.75C5.50781 10.7422 5.50781 10.7344 5.50781 10.7188C5.50817 10.7145 5.50766 10.7103 5.50632 10.7062C5.50498 10.7022 5.50283 10.6985 5.5 10.6953V10.5078C5.5 10.4922 5.50781 10.4844 5.50781 10.4766V10.4453C5.51403 10.4361 5.51679 10.4251 5.51562 10.4141C5.52344 10.4062 5.52344 10.3984 5.52344 10.3828L5.53906 10.3594C5.53906 10.3437 5.53906 10.3359 5.54688 10.3281L5.5625 10.2969V10.2734L5.57812 10.2422L5.59375 10.2188L5.61719 10.1875L5.63281 10.1719L6.07031 9.625H5.1875C5.02174 9.625 4.86277 9.55915 4.74556 9.44194C4.62835 9.32473 4.5625 9.16576 4.5625 9C4.5625 8.83424 4.62835 8.67527 4.74556 8.55806C4.86277 8.44085 5.02174 8.375 5.1875 8.375H7.375C7.49245 8.37566 7.60734 8.4094 7.70649 8.47235C7.80565 8.53531 7.88506 8.62493 7.93562 8.73094C7.98618 8.83696 8.00584 8.95507 7.99236 9.07175C7.97887 9.18842 7.93278 9.29894 7.85938 9.39062L7.17188 10.2578C7.50477 10.4822 7.75684 10.8076 7.89099 11.186C8.02513 11.5644 8.03428 11.9759 7.91707 12.3599C7.79986 12.7439 7.56248 13.0801 7.23988 13.3191C6.91728 13.5581 6.52648 13.6872 6.125 13.6875ZM11.125 13.0625C11.125 13.2283 11.0592 13.3872 10.9419 13.5044C10.8247 13.6217 10.6658 13.6875 10.5 13.6875C10.3342 13.6875 10.1753 13.6217 10.0581 13.5044C9.94085 13.3872 9.875 13.2283 9.875 13.0625V10.25L9.625 10.4375C9.49168 10.535 9.32554 10.5764 9.16206 10.5531C8.99858 10.5297 8.8507 10.4434 8.75 10.3125C8.65054 10.1799 8.60784 10.0132 8.63128 9.84911C8.65472 9.68502 8.74239 9.53696 8.875 9.4375L10.125 8.5C10.2179 8.43036 10.3283 8.38795 10.4439 8.37753C10.5595 8.3671 10.6757 8.38908 10.7795 8.44098C10.8833 8.49289 10.9706 8.57268 11.0317 8.67142C11.0927 8.77015 11.125 8.88393 11.125 9V13.0625ZM14.25 5.25H1.75V2.75H3.625V3.375C3.625 3.54076 3.69085 3.69973 3.80806 3.81694C3.92527 3.93415 4.08424 4 4.25 4C4.41576 4 4.57473 3.93415 4.69194 3.81694C4.80915 3.69973 4.875 3.54076 4.875 3.375V2.75H11.125V3.375C11.125 3.54076 11.1908 3.69973 11.3081 3.81694C11.4253 3.93415 11.5842 4 11.75 4C11.9158 4 12.0747 3.93415 12.1919 3.81694C12.3092 3.69973 12.375 3.54076 12.375 3.375V2.75H14.25V5.25Z" fill="#333333"/>
</svg>
