<svg width="16" height="16" viewBox="0 0 16 16" fill="none" xmlns="http://www.w3.org/2000/svg">
<path d="M8 15.3125C9.44627 15.3125 10.8601 14.8836 12.0626 14.0801C13.2651 13.2766 14.2024 12.1346 14.7559 10.7984C15.3093 9.46219 15.4541 7.99189 15.172 6.5734C14.8898 5.15492 14.1934 3.85195 13.1707 2.82928C12.148 1.80661 10.8451 1.11016 9.42659 0.828008C8.00811 0.545854 6.53781 0.690665 5.20162 1.24413C3.86544 1.7976 2.72338 2.73486 1.91988 3.93739C1.11637 5.13993 0.687497 6.55372 0.687497 8C0.691214 9.93825 1.46283 11.7961 2.83338 13.1666C4.20394 14.5372 6.06174 15.3088 8 15.3125ZM8 1.8125C9.22377 1.8125 10.4201 2.17539 11.4376 2.85528C12.4551 3.53517 13.2482 4.50153 13.7165 5.63215C14.1848 6.76276 14.3074 8.00686 14.0686 9.20712C13.8299 10.4074 13.2406 11.5099 12.3752 12.3752C11.5099 13.2406 10.4074 13.8299 9.20712 14.0686C8.00686 14.3074 6.76276 14.1848 5.63214 13.7165C4.50152 13.2482 3.53517 12.4551 2.85528 11.4376C2.17539 10.4201 1.8125 9.22377 1.8125 8C1.81436 6.35954 2.46685 4.78681 3.62683 3.62683C4.78681 2.46685 6.35954 1.81436 8 1.8125ZM6.49531 10.1164L8.84375 8L6.49531 5.88359C6.38532 5.78288 6.31983 5.6426 6.31323 5.49361C6.30664 5.34461 6.35949 5.1991 6.46015 5.08906C6.51256 5.03113 6.57659 4.98491 6.64808 4.95341C6.71956 4.92191 6.79688 4.90584 6.875 4.90625C7.01531 4.90763 7.15031 4.96012 7.25468 5.05391L10.0672 7.58516C10.1247 7.63786 10.1707 7.70195 10.2021 7.77337C10.2336 7.84479 10.2498 7.92197 10.2498 8C10.2498 8.07803 10.2336 8.15521 10.2021 8.22663C10.1707 8.29805 10.1247 8.36214 10.0672 8.41484L7.25468 10.9461C7.20054 10.9978 7.13662 11.0383 7.06665 11.065C6.99668 11.0917 6.92208 11.1042 6.84723 11.1017C6.77238 11.0992 6.69878 11.0817 6.63075 11.0504C6.56273 11.0191 6.50164 10.9745 6.45107 10.9192C6.40051 10.864 6.36148 10.7992 6.33629 10.7287C6.3111 10.6582 6.30025 10.5833 6.30437 10.5085C6.30849 10.4337 6.3275 10.3605 6.36029 10.2932C6.39307 10.2259 6.43898 10.1658 6.49531 10.1164Z" fill="#333333"/>
</svg>
