<svg width="16" height="16" viewBox="0 0 16 16" fill="none" xmlns="http://www.w3.org/2000/svg">
<path d="M8 0.6875C6.55373 0.6875 5.13993 1.11637 3.9374 1.91988C2.73486 2.72339 1.7976 3.86544 1.24413 5.20163C0.690668 6.53781 0.545857 8.00811 0.828011 9.4266C1.11017 10.8451 1.80661 12.148 2.82928 13.1707C3.85196 14.1934 5.15492 14.8898 6.57341 15.172C7.99189 15.4541 9.46219 15.3093 10.7984 14.7559C12.1346 14.2024 13.2766 13.2651 14.0801 12.0626C14.8836 10.8601 15.3125 9.44628 15.3125 8C15.3088 6.06175 14.5372 4.20394 13.1666 2.83339C11.7961 1.46283 9.93826 0.691217 8 0.6875ZM8 14.1875C6.77623 14.1875 5.57994 13.8246 4.56241 13.1447C3.54488 12.4648 2.75182 11.4985 2.2835 10.3679C1.81518 9.23724 1.69265 7.99314 1.93139 6.79288C2.17014 5.59262 2.75944 4.49011 3.62478 3.62478C4.49012 2.75944 5.59262 2.17014 6.79288 1.93139C7.99314 1.69264 9.23724 1.81518 10.3679 2.2835C11.4985 2.75181 12.4648 3.54488 13.1447 4.56241C13.8246 5.57994 14.1875 6.77623 14.1875 8C14.1856 9.64046 13.5331 11.2132 12.3732 12.3732C11.2132 13.5331 9.64046 14.1856 8 14.1875ZM9.50469 5.88359L7.15625 8L9.50469 10.1164C9.61468 10.2171 9.68017 10.3574 9.68677 10.5064C9.69336 10.6554 9.64051 10.8009 9.53985 10.9109C9.48744 10.9689 9.42341 11.0151 9.35192 11.0466C9.28044 11.0781 9.20312 11.0942 9.125 11.0938C8.98469 11.0924 8.84969 11.0399 8.74532 10.9461L5.93282 8.41484C5.87527 8.36214 5.82931 8.29805 5.79787 8.22663C5.76643 8.15521 5.7502 8.07803 5.7502 8C5.7502 7.92197 5.76643 7.84479 5.79787 7.77337C5.82931 7.70195 5.87527 7.63786 5.93282 7.58516L8.74532 5.05391C8.79946 5.00216 8.86338 4.96174 8.93335 4.93503C9.00332 4.90831 9.07792 4.89584 9.15277 4.89834C9.22762 4.90084 9.30122 4.91826 9.36925 4.94959C9.43727 4.98091 9.49836 5.0255 9.54893 5.08075C9.59949 5.136 9.63852 5.20079 9.66371 5.27132C9.6889 5.34184 9.69975 5.41669 9.69563 5.49147C9.69151 5.56625 9.6725 5.63946 9.63971 5.70679C9.60693 5.77413 9.56102 5.83424 9.50469 5.88359Z" fill="#333333"/>
</svg>
